%TF.GenerationSoftware,KiCad,Pcbnew,(5.1.10)-1*%
%TF.CreationDate,2022-06-29T20:33:17-04:00*%
%TF.ProjectId,RPI4_LEDs,52504934-5f4c-4454-9473-2e6b69636164,rev?*%
%TF.SameCoordinates,Original*%
%TF.FileFunction,Soldermask,Top*%
%TF.FilePolarity,Negative*%
%FSLAX46Y46*%
G04 Gerber Fmt 4.6, Leading zero omitted, Abs format (unit mm)*
G04 Created by KiCad (PCBNEW (5.1.10)-1) date 2022-06-29 20:33:17*
%MOMM*%
%LPD*%
G01*
G04 APERTURE LIST*
%ADD10C,1.600000*%
%ADD11C,2.400000*%
%ADD12R,2.400000X2.400000*%
%ADD13O,1.600000X1.600000*%
%ADD14C,2.600000*%
%ADD15R,2.600000X2.600000*%
%ADD16C,0.800000*%
%ADD17C,6.400000*%
%ADD18C,1.700000*%
%ADD19R,2.800000X2.800000*%
%ADD20R,2.600000X2.800000*%
%ADD21R,2.200000X2.800000*%
%ADD22R,1.600000X1.600000*%
G04 APERTURE END LIST*
D10*
%TO.C,C7*%
X133430000Y-80010000D03*
X138430000Y-80010000D03*
%TD*%
D11*
%TO.C,C3*%
X154940000Y-85170000D03*
D12*
X154940000Y-90170000D03*
%TD*%
D13*
%TO.C,R1*%
X123190000Y-72390000D03*
D10*
X130810000Y-72390000D03*
%TD*%
D14*
%TO.C,J13*%
X168910000Y-78740000D03*
D15*
X168910000Y-73660000D03*
%TD*%
D14*
%TO.C,J12*%
X168910000Y-88900000D03*
D15*
X168910000Y-83820000D03*
%TD*%
D16*
%TO.C,H4*%
X154097056Y-74502944D03*
X152400000Y-73800000D03*
X150702944Y-74502944D03*
X150000000Y-76200000D03*
X150702944Y-77897056D03*
X152400000Y-78600000D03*
X154097056Y-77897056D03*
X154800000Y-76200000D03*
D17*
X152400000Y-76200000D03*
%TD*%
D16*
%TO.C,H3*%
X154097056Y-106252944D03*
X152400000Y-105550000D03*
X150702944Y-106252944D03*
X150000000Y-107950000D03*
X150702944Y-109647056D03*
X152400000Y-110350000D03*
X154097056Y-109647056D03*
X154800000Y-107950000D03*
D17*
X152400000Y-107950000D03*
%TD*%
D16*
%TO.C,H2*%
X117267056Y-74502944D03*
X115570000Y-73800000D03*
X113872944Y-74502944D03*
X113170000Y-76200000D03*
X113872944Y-77897056D03*
X115570000Y-78600000D03*
X117267056Y-77897056D03*
X117970000Y-76200000D03*
D17*
X115570000Y-76200000D03*
%TD*%
D18*
%TO.C,J10*%
X102290000Y-76200000D03*
X95290000Y-76200000D03*
D19*
X103590000Y-79900000D03*
D20*
X107590000Y-75450000D03*
D21*
X94190000Y-79900000D03*
X96190000Y-72500000D03*
%TD*%
D13*
%TO.C,U4*%
X132080000Y-83820000D03*
X139700000Y-91440000D03*
X134620000Y-83820000D03*
X137160000Y-91440000D03*
X137160000Y-83820000D03*
X134620000Y-91440000D03*
X139700000Y-83820000D03*
D22*
X132080000Y-91440000D03*
%TD*%
%TO.C,U3*%
G36*
G01*
X129690000Y-107720000D02*
X129390000Y-107720000D01*
G75*
G02*
X129240000Y-107570000I0J150000D01*
G01*
X129240000Y-105920000D01*
G75*
G02*
X129390000Y-105770000I150000J0D01*
G01*
X129690000Y-105770000D01*
G75*
G02*
X129840000Y-105920000I0J-150000D01*
G01*
X129840000Y-107570000D01*
G75*
G02*
X129690000Y-107720000I-150000J0D01*
G01*
G37*
G36*
G01*
X130960000Y-107720000D02*
X130660000Y-107720000D01*
G75*
G02*
X130510000Y-107570000I0J150000D01*
G01*
X130510000Y-105920000D01*
G75*
G02*
X130660000Y-105770000I150000J0D01*
G01*
X130960000Y-105770000D01*
G75*
G02*
X131110000Y-105920000I0J-150000D01*
G01*
X131110000Y-107570000D01*
G75*
G02*
X130960000Y-107720000I-150000J0D01*
G01*
G37*
G36*
G01*
X132230000Y-107720000D02*
X131930000Y-107720000D01*
G75*
G02*
X131780000Y-107570000I0J150000D01*
G01*
X131780000Y-105920000D01*
G75*
G02*
X131930000Y-105770000I150000J0D01*
G01*
X132230000Y-105770000D01*
G75*
G02*
X132380000Y-105920000I0J-150000D01*
G01*
X132380000Y-107570000D01*
G75*
G02*
X132230000Y-107720000I-150000J0D01*
G01*
G37*
G36*
G01*
X133500000Y-107720000D02*
X133200000Y-107720000D01*
G75*
G02*
X133050000Y-107570000I0J150000D01*
G01*
X133050000Y-105920000D01*
G75*
G02*
X133200000Y-105770000I150000J0D01*
G01*
X133500000Y-105770000D01*
G75*
G02*
X133650000Y-105920000I0J-150000D01*
G01*
X133650000Y-107570000D01*
G75*
G02*
X133500000Y-107720000I-150000J0D01*
G01*
G37*
G36*
G01*
X134770000Y-107720000D02*
X134470000Y-107720000D01*
G75*
G02*
X134320000Y-107570000I0J150000D01*
G01*
X134320000Y-105920000D01*
G75*
G02*
X134470000Y-105770000I150000J0D01*
G01*
X134770000Y-105770000D01*
G75*
G02*
X134920000Y-105920000I0J-150000D01*
G01*
X134920000Y-107570000D01*
G75*
G02*
X134770000Y-107720000I-150000J0D01*
G01*
G37*
G36*
G01*
X136040000Y-107720000D02*
X135740000Y-107720000D01*
G75*
G02*
X135590000Y-107570000I0J150000D01*
G01*
X135590000Y-105920000D01*
G75*
G02*
X135740000Y-105770000I150000J0D01*
G01*
X136040000Y-105770000D01*
G75*
G02*
X136190000Y-105920000I0J-150000D01*
G01*
X136190000Y-107570000D01*
G75*
G02*
X136040000Y-107720000I-150000J0D01*
G01*
G37*
G36*
G01*
X137310000Y-107720000D02*
X137010000Y-107720000D01*
G75*
G02*
X136860000Y-107570000I0J150000D01*
G01*
X136860000Y-105920000D01*
G75*
G02*
X137010000Y-105770000I150000J0D01*
G01*
X137310000Y-105770000D01*
G75*
G02*
X137460000Y-105920000I0J-150000D01*
G01*
X137460000Y-107570000D01*
G75*
G02*
X137310000Y-107720000I-150000J0D01*
G01*
G37*
G36*
G01*
X137310000Y-112670000D02*
X137010000Y-112670000D01*
G75*
G02*
X136860000Y-112520000I0J150000D01*
G01*
X136860000Y-110870000D01*
G75*
G02*
X137010000Y-110720000I150000J0D01*
G01*
X137310000Y-110720000D01*
G75*
G02*
X137460000Y-110870000I0J-150000D01*
G01*
X137460000Y-112520000D01*
G75*
G02*
X137310000Y-112670000I-150000J0D01*
G01*
G37*
G36*
G01*
X136040000Y-112670000D02*
X135740000Y-112670000D01*
G75*
G02*
X135590000Y-112520000I0J150000D01*
G01*
X135590000Y-110870000D01*
G75*
G02*
X135740000Y-110720000I150000J0D01*
G01*
X136040000Y-110720000D01*
G75*
G02*
X136190000Y-110870000I0J-150000D01*
G01*
X136190000Y-112520000D01*
G75*
G02*
X136040000Y-112670000I-150000J0D01*
G01*
G37*
G36*
G01*
X134770000Y-112670000D02*
X134470000Y-112670000D01*
G75*
G02*
X134320000Y-112520000I0J150000D01*
G01*
X134320000Y-110870000D01*
G75*
G02*
X134470000Y-110720000I150000J0D01*
G01*
X134770000Y-110720000D01*
G75*
G02*
X134920000Y-110870000I0J-150000D01*
G01*
X134920000Y-112520000D01*
G75*
G02*
X134770000Y-112670000I-150000J0D01*
G01*
G37*
G36*
G01*
X133500000Y-112670000D02*
X133200000Y-112670000D01*
G75*
G02*
X133050000Y-112520000I0J150000D01*
G01*
X133050000Y-110870000D01*
G75*
G02*
X133200000Y-110720000I150000J0D01*
G01*
X133500000Y-110720000D01*
G75*
G02*
X133650000Y-110870000I0J-150000D01*
G01*
X133650000Y-112520000D01*
G75*
G02*
X133500000Y-112670000I-150000J0D01*
G01*
G37*
G36*
G01*
X132230000Y-112670000D02*
X131930000Y-112670000D01*
G75*
G02*
X131780000Y-112520000I0J150000D01*
G01*
X131780000Y-110870000D01*
G75*
G02*
X131930000Y-110720000I150000J0D01*
G01*
X132230000Y-110720000D01*
G75*
G02*
X132380000Y-110870000I0J-150000D01*
G01*
X132380000Y-112520000D01*
G75*
G02*
X132230000Y-112670000I-150000J0D01*
G01*
G37*
G36*
G01*
X130960000Y-112670000D02*
X130660000Y-112670000D01*
G75*
G02*
X130510000Y-112520000I0J150000D01*
G01*
X130510000Y-110870000D01*
G75*
G02*
X130660000Y-110720000I150000J0D01*
G01*
X130960000Y-110720000D01*
G75*
G02*
X131110000Y-110870000I0J-150000D01*
G01*
X131110000Y-112520000D01*
G75*
G02*
X130960000Y-112670000I-150000J0D01*
G01*
G37*
G36*
G01*
X129690000Y-112670000D02*
X129390000Y-112670000D01*
G75*
G02*
X129240000Y-112520000I0J150000D01*
G01*
X129240000Y-110870000D01*
G75*
G02*
X129390000Y-110720000I150000J0D01*
G01*
X129690000Y-110720000D01*
G75*
G02*
X129840000Y-110870000I0J-150000D01*
G01*
X129840000Y-112520000D01*
G75*
G02*
X129690000Y-112670000I-150000J0D01*
G01*
G37*
%TD*%
D10*
%TO.C,U2*%
X119380000Y-96520000D03*
X121920000Y-96520000D03*
X119380000Y-93980000D03*
X121920000Y-93980000D03*
X119380000Y-91440000D03*
X121920000Y-91440000D03*
X119380000Y-88900000D03*
X121920000Y-88900000D03*
X119380000Y-86360000D03*
X121920000Y-86360000D03*
X93980000Y-99060000D03*
X96520000Y-99060000D03*
X99060000Y-99060000D03*
X101600000Y-99060000D03*
X104140000Y-99060000D03*
X106680000Y-99060000D03*
X109220000Y-99060000D03*
X111760000Y-99060000D03*
X114300000Y-99060000D03*
X116840000Y-99060000D03*
X119380000Y-99060000D03*
X121920000Y-99060000D03*
X124460000Y-99060000D03*
X96520000Y-86360000D03*
X93980000Y-83820000D03*
X96520000Y-83820000D03*
X99060000Y-83820000D03*
X101600000Y-83820000D03*
X104140000Y-83820000D03*
X106680000Y-83820000D03*
X109220000Y-83820000D03*
X111760000Y-83820000D03*
X114300000Y-83820000D03*
X116840000Y-83820000D03*
X119380000Y-83820000D03*
X121920000Y-83820000D03*
X124460000Y-83820000D03*
X127000000Y-99060000D03*
X127000000Y-96520000D03*
X127000000Y-93980000D03*
X127000000Y-83820000D03*
X127000000Y-86360000D03*
X127000000Y-88900000D03*
X127000000Y-91440000D03*
%TD*%
%TO.C,U1*%
G36*
G01*
X113180000Y-107720000D02*
X112880000Y-107720000D01*
G75*
G02*
X112730000Y-107570000I0J150000D01*
G01*
X112730000Y-105920000D01*
G75*
G02*
X112880000Y-105770000I150000J0D01*
G01*
X113180000Y-105770000D01*
G75*
G02*
X113330000Y-105920000I0J-150000D01*
G01*
X113330000Y-107570000D01*
G75*
G02*
X113180000Y-107720000I-150000J0D01*
G01*
G37*
G36*
G01*
X114450000Y-107720000D02*
X114150000Y-107720000D01*
G75*
G02*
X114000000Y-107570000I0J150000D01*
G01*
X114000000Y-105920000D01*
G75*
G02*
X114150000Y-105770000I150000J0D01*
G01*
X114450000Y-105770000D01*
G75*
G02*
X114600000Y-105920000I0J-150000D01*
G01*
X114600000Y-107570000D01*
G75*
G02*
X114450000Y-107720000I-150000J0D01*
G01*
G37*
G36*
G01*
X115720000Y-107720000D02*
X115420000Y-107720000D01*
G75*
G02*
X115270000Y-107570000I0J150000D01*
G01*
X115270000Y-105920000D01*
G75*
G02*
X115420000Y-105770000I150000J0D01*
G01*
X115720000Y-105770000D01*
G75*
G02*
X115870000Y-105920000I0J-150000D01*
G01*
X115870000Y-107570000D01*
G75*
G02*
X115720000Y-107720000I-150000J0D01*
G01*
G37*
G36*
G01*
X116990000Y-107720000D02*
X116690000Y-107720000D01*
G75*
G02*
X116540000Y-107570000I0J150000D01*
G01*
X116540000Y-105920000D01*
G75*
G02*
X116690000Y-105770000I150000J0D01*
G01*
X116990000Y-105770000D01*
G75*
G02*
X117140000Y-105920000I0J-150000D01*
G01*
X117140000Y-107570000D01*
G75*
G02*
X116990000Y-107720000I-150000J0D01*
G01*
G37*
G36*
G01*
X118260000Y-107720000D02*
X117960000Y-107720000D01*
G75*
G02*
X117810000Y-107570000I0J150000D01*
G01*
X117810000Y-105920000D01*
G75*
G02*
X117960000Y-105770000I150000J0D01*
G01*
X118260000Y-105770000D01*
G75*
G02*
X118410000Y-105920000I0J-150000D01*
G01*
X118410000Y-107570000D01*
G75*
G02*
X118260000Y-107720000I-150000J0D01*
G01*
G37*
G36*
G01*
X119530000Y-107720000D02*
X119230000Y-107720000D01*
G75*
G02*
X119080000Y-107570000I0J150000D01*
G01*
X119080000Y-105920000D01*
G75*
G02*
X119230000Y-105770000I150000J0D01*
G01*
X119530000Y-105770000D01*
G75*
G02*
X119680000Y-105920000I0J-150000D01*
G01*
X119680000Y-107570000D01*
G75*
G02*
X119530000Y-107720000I-150000J0D01*
G01*
G37*
G36*
G01*
X120800000Y-107720000D02*
X120500000Y-107720000D01*
G75*
G02*
X120350000Y-107570000I0J150000D01*
G01*
X120350000Y-105920000D01*
G75*
G02*
X120500000Y-105770000I150000J0D01*
G01*
X120800000Y-105770000D01*
G75*
G02*
X120950000Y-105920000I0J-150000D01*
G01*
X120950000Y-107570000D01*
G75*
G02*
X120800000Y-107720000I-150000J0D01*
G01*
G37*
G36*
G01*
X120800000Y-112670000D02*
X120500000Y-112670000D01*
G75*
G02*
X120350000Y-112520000I0J150000D01*
G01*
X120350000Y-110870000D01*
G75*
G02*
X120500000Y-110720000I150000J0D01*
G01*
X120800000Y-110720000D01*
G75*
G02*
X120950000Y-110870000I0J-150000D01*
G01*
X120950000Y-112520000D01*
G75*
G02*
X120800000Y-112670000I-150000J0D01*
G01*
G37*
G36*
G01*
X119530000Y-112670000D02*
X119230000Y-112670000D01*
G75*
G02*
X119080000Y-112520000I0J150000D01*
G01*
X119080000Y-110870000D01*
G75*
G02*
X119230000Y-110720000I150000J0D01*
G01*
X119530000Y-110720000D01*
G75*
G02*
X119680000Y-110870000I0J-150000D01*
G01*
X119680000Y-112520000D01*
G75*
G02*
X119530000Y-112670000I-150000J0D01*
G01*
G37*
G36*
G01*
X118260000Y-112670000D02*
X117960000Y-112670000D01*
G75*
G02*
X117810000Y-112520000I0J150000D01*
G01*
X117810000Y-110870000D01*
G75*
G02*
X117960000Y-110720000I150000J0D01*
G01*
X118260000Y-110720000D01*
G75*
G02*
X118410000Y-110870000I0J-150000D01*
G01*
X118410000Y-112520000D01*
G75*
G02*
X118260000Y-112670000I-150000J0D01*
G01*
G37*
G36*
G01*
X116990000Y-112670000D02*
X116690000Y-112670000D01*
G75*
G02*
X116540000Y-112520000I0J150000D01*
G01*
X116540000Y-110870000D01*
G75*
G02*
X116690000Y-110720000I150000J0D01*
G01*
X116990000Y-110720000D01*
G75*
G02*
X117140000Y-110870000I0J-150000D01*
G01*
X117140000Y-112520000D01*
G75*
G02*
X116990000Y-112670000I-150000J0D01*
G01*
G37*
G36*
G01*
X115720000Y-112670000D02*
X115420000Y-112670000D01*
G75*
G02*
X115270000Y-112520000I0J150000D01*
G01*
X115270000Y-110870000D01*
G75*
G02*
X115420000Y-110720000I150000J0D01*
G01*
X115720000Y-110720000D01*
G75*
G02*
X115870000Y-110870000I0J-150000D01*
G01*
X115870000Y-112520000D01*
G75*
G02*
X115720000Y-112670000I-150000J0D01*
G01*
G37*
G36*
G01*
X114450000Y-112670000D02*
X114150000Y-112670000D01*
G75*
G02*
X114000000Y-112520000I0J150000D01*
G01*
X114000000Y-110870000D01*
G75*
G02*
X114150000Y-110720000I150000J0D01*
G01*
X114450000Y-110720000D01*
G75*
G02*
X114600000Y-110870000I0J-150000D01*
G01*
X114600000Y-112520000D01*
G75*
G02*
X114450000Y-112670000I-150000J0D01*
G01*
G37*
G36*
G01*
X113180000Y-112670000D02*
X112880000Y-112670000D01*
G75*
G02*
X112730000Y-112520000I0J150000D01*
G01*
X112730000Y-110870000D01*
G75*
G02*
X112880000Y-110720000I150000J0D01*
G01*
X113180000Y-110720000D01*
G75*
G02*
X113330000Y-110870000I0J-150000D01*
G01*
X113330000Y-112520000D01*
G75*
G02*
X113180000Y-112670000I-150000J0D01*
G01*
G37*
%TD*%
D13*
%TO.C,R3*%
X123190000Y-80010000D03*
D10*
X130810000Y-80010000D03*
%TD*%
D13*
%TO.C,R2*%
X123190000Y-76200000D03*
D10*
X130810000Y-76200000D03*
%TD*%
D14*
%TO.C,J11*%
X161290000Y-121920000D03*
D15*
X156210000Y-121920000D03*
%TD*%
D14*
%TO.C,J9*%
X171450000Y-121920000D03*
D15*
X166370000Y-121920000D03*
%TD*%
D14*
%TO.C,J8*%
X151130000Y-121920000D03*
D15*
X146050000Y-121920000D03*
%TD*%
D14*
%TO.C,J7*%
X140970000Y-121920000D03*
D15*
X135890000Y-121920000D03*
%TD*%
D14*
%TO.C,J6*%
X120650000Y-121920000D03*
D15*
X115570000Y-121920000D03*
%TD*%
D14*
%TO.C,J5*%
X130810000Y-121920000D03*
D15*
X125730000Y-121920000D03*
%TD*%
D14*
%TO.C,J4*%
X110490000Y-121920000D03*
D15*
X105410000Y-121920000D03*
%TD*%
D14*
%TO.C,J3*%
X100330000Y-121920000D03*
D15*
X95250000Y-121920000D03*
%TD*%
D14*
%TO.C,J2*%
X168910000Y-101600000D03*
D15*
X168910000Y-96520000D03*
%TD*%
D14*
%TO.C,J1*%
X168910000Y-111760000D03*
D15*
X168910000Y-106680000D03*
%TD*%
D10*
%TO.C,C6*%
X138350000Y-76200000D03*
X133350000Y-76200000D03*
%TD*%
%TO.C,C5*%
X138350000Y-72390000D03*
X133350000Y-72390000D03*
%TD*%
%TO.C,C4*%
X132160000Y-95250000D03*
X137160000Y-95250000D03*
%TD*%
%TO.C,C2*%
X125730000Y-106760000D03*
X125730000Y-111760000D03*
%TD*%
%TO.C,C1*%
X109220000Y-106760000D03*
X109220000Y-111760000D03*
%TD*%
M02*
