%TF.GenerationSoftware,KiCad,Pcbnew,(5.1.10)-1*%
%TF.CreationDate,2022-06-29T20:33:17-04:00*%
%TF.ProjectId,RPI4_LEDs,52504934-5f4c-4454-9473-2e6b69636164,rev?*%
%TF.SameCoordinates,Original*%
%TF.FileFunction,Legend,Top*%
%TF.FilePolarity,Positive*%
%FSLAX46Y46*%
G04 Gerber Fmt 4.6, Leading zero omitted, Abs format (unit mm)*
G04 Created by KiCad (PCBNEW (5.1.10)-1) date 2022-06-29 20:33:17*
%MOMM*%
%LPD*%
G01*
G04 APERTURE LIST*
%ADD10C,0.150000*%
%ADD11C,0.120000*%
%ADD12C,0.100000*%
G04 APERTURE END LIST*
D10*
X140511785Y-98687380D02*
X140035595Y-98687380D01*
X140035595Y-97687380D01*
X140845119Y-98163571D02*
X141178452Y-98163571D01*
X141321309Y-98687380D02*
X140845119Y-98687380D01*
X140845119Y-97687380D01*
X141321309Y-97687380D01*
X141749880Y-98687380D02*
X141749880Y-97687380D01*
X141987976Y-97687380D01*
X142130833Y-97735000D01*
X142226071Y-97830238D01*
X142273690Y-97925476D01*
X142321309Y-98115952D01*
X142321309Y-98258809D01*
X142273690Y-98449285D01*
X142226071Y-98544523D01*
X142130833Y-98639761D01*
X141987976Y-98687380D01*
X141749880Y-98687380D01*
X143511785Y-98687380D02*
X143511785Y-97687380D01*
X143749880Y-97687380D01*
X143892738Y-97735000D01*
X143987976Y-97830238D01*
X144035595Y-97925476D01*
X144083214Y-98115952D01*
X144083214Y-98258809D01*
X144035595Y-98449285D01*
X143987976Y-98544523D01*
X143892738Y-98639761D01*
X143749880Y-98687380D01*
X143511785Y-98687380D01*
X144511785Y-98687380D02*
X144511785Y-98020714D01*
X144511785Y-98211190D02*
X144559404Y-98115952D01*
X144607023Y-98068333D01*
X144702261Y-98020714D01*
X144797500Y-98020714D01*
X145130833Y-98687380D02*
X145130833Y-98020714D01*
X145130833Y-97687380D02*
X145083214Y-97735000D01*
X145130833Y-97782619D01*
X145178452Y-97735000D01*
X145130833Y-97687380D01*
X145130833Y-97782619D01*
X145511785Y-98020714D02*
X145749880Y-98687380D01*
X145987976Y-98020714D01*
X146749880Y-98639761D02*
X146654642Y-98687380D01*
X146464166Y-98687380D01*
X146368928Y-98639761D01*
X146321309Y-98544523D01*
X146321309Y-98163571D01*
X146368928Y-98068333D01*
X146464166Y-98020714D01*
X146654642Y-98020714D01*
X146749880Y-98068333D01*
X146797500Y-98163571D01*
X146797500Y-98258809D01*
X146321309Y-98354047D01*
X147226071Y-98687380D02*
X147226071Y-98020714D01*
X147226071Y-98211190D02*
X147273690Y-98115952D01*
X147321309Y-98068333D01*
X147416547Y-98020714D01*
X147511785Y-98020714D01*
X148511785Y-97687380D02*
X149130833Y-97687380D01*
X148797500Y-98068333D01*
X148940357Y-98068333D01*
X149035595Y-98115952D01*
X149083214Y-98163571D01*
X149130833Y-98258809D01*
X149130833Y-98496904D01*
X149083214Y-98592142D01*
X149035595Y-98639761D01*
X148940357Y-98687380D01*
X148654642Y-98687380D01*
X148559404Y-98639761D01*
X148511785Y-98592142D01*
X149559404Y-98592142D02*
X149607023Y-98639761D01*
X149559404Y-98687380D01*
X149511785Y-98639761D01*
X149559404Y-98592142D01*
X149559404Y-98687380D01*
X150559404Y-98687380D02*
X149987976Y-98687380D01*
X150273690Y-98687380D02*
X150273690Y-97687380D01*
X150178452Y-97830238D01*
X150083214Y-97925476D01*
X149987976Y-97973095D01*
X140035595Y-100337380D02*
X140035595Y-99337380D01*
X140368928Y-100051666D01*
X140702261Y-99337380D01*
X140702261Y-100337380D01*
X141607023Y-100337380D02*
X141607023Y-99813571D01*
X141559404Y-99718333D01*
X141464166Y-99670714D01*
X141273690Y-99670714D01*
X141178452Y-99718333D01*
X141607023Y-100289761D02*
X141511785Y-100337380D01*
X141273690Y-100337380D01*
X141178452Y-100289761D01*
X141130833Y-100194523D01*
X141130833Y-100099285D01*
X141178452Y-100004047D01*
X141273690Y-99956428D01*
X141511785Y-99956428D01*
X141607023Y-99908809D01*
X141940357Y-99670714D02*
X142321309Y-99670714D01*
X142083214Y-99337380D02*
X142083214Y-100194523D01*
X142130833Y-100289761D01*
X142226071Y-100337380D01*
X142321309Y-100337380D01*
X142511785Y-99670714D02*
X142892738Y-99670714D01*
X142654642Y-99337380D02*
X142654642Y-100194523D01*
X142702261Y-100289761D01*
X142797500Y-100337380D01*
X142892738Y-100337380D01*
X143987976Y-100337380D02*
X143987976Y-99337380D01*
X144464166Y-99670714D02*
X144464166Y-100670714D01*
X144464166Y-99718333D02*
X144559404Y-99670714D01*
X144749880Y-99670714D01*
X144845119Y-99718333D01*
X144892738Y-99765952D01*
X144940357Y-99861190D01*
X144940357Y-100146904D01*
X144892738Y-100242142D01*
X144845119Y-100289761D01*
X144749880Y-100337380D01*
X144559404Y-100337380D01*
X144464166Y-100289761D01*
X145368928Y-99670714D02*
X145368928Y-100670714D01*
X145368928Y-99718333D02*
X145464166Y-99670714D01*
X145654642Y-99670714D01*
X145749880Y-99718333D01*
X145797500Y-99765952D01*
X145845119Y-99861190D01*
X145845119Y-100146904D01*
X145797500Y-100242142D01*
X145749880Y-100289761D01*
X145654642Y-100337380D01*
X145464166Y-100337380D01*
X145368928Y-100289761D01*
X146416547Y-100337380D02*
X146321309Y-100289761D01*
X146273690Y-100242142D01*
X146226071Y-100146904D01*
X146226071Y-99861190D01*
X146273690Y-99765952D01*
X146321309Y-99718333D01*
X146416547Y-99670714D01*
X146559404Y-99670714D01*
X146654642Y-99718333D01*
X146702261Y-99765952D01*
X146749880Y-99861190D01*
X146749880Y-100146904D01*
X146702261Y-100242142D01*
X146654642Y-100289761D01*
X146559404Y-100337380D01*
X146416547Y-100337380D01*
X147321309Y-100337380D02*
X147226071Y-100289761D01*
X147178452Y-100194523D01*
X147178452Y-99337380D01*
X147702261Y-100337380D02*
X147702261Y-99670714D01*
X147702261Y-99337380D02*
X147654642Y-99385000D01*
X147702261Y-99432619D01*
X147749880Y-99385000D01*
X147702261Y-99337380D01*
X147702261Y-99432619D01*
X148035595Y-99670714D02*
X148416547Y-99670714D01*
X148178452Y-99337380D02*
X148178452Y-100194523D01*
X148226071Y-100289761D01*
X148321309Y-100337380D01*
X148416547Y-100337380D01*
X148892738Y-100337380D02*
X148797500Y-100289761D01*
X148749880Y-100242142D01*
X148702261Y-100146904D01*
X148702261Y-99861190D01*
X148749880Y-99765952D01*
X148797500Y-99718333D01*
X148892738Y-99670714D01*
X149035595Y-99670714D01*
X149130833Y-99718333D01*
X149178452Y-99765952D01*
X149226071Y-99861190D01*
X149226071Y-100146904D01*
X149178452Y-100242142D01*
X149130833Y-100289761D01*
X149035595Y-100337380D01*
X148892738Y-100337380D01*
X150368928Y-99432619D02*
X150416547Y-99385000D01*
X150511785Y-99337380D01*
X150749880Y-99337380D01*
X150845119Y-99385000D01*
X150892738Y-99432619D01*
X150940357Y-99527857D01*
X150940357Y-99623095D01*
X150892738Y-99765952D01*
X150321309Y-100337380D01*
X150940357Y-100337380D01*
X151559404Y-99337380D02*
X151654642Y-99337380D01*
X151749880Y-99385000D01*
X151797500Y-99432619D01*
X151845119Y-99527857D01*
X151892738Y-99718333D01*
X151892738Y-99956428D01*
X151845119Y-100146904D01*
X151797500Y-100242142D01*
X151749880Y-100289761D01*
X151654642Y-100337380D01*
X151559404Y-100337380D01*
X151464166Y-100289761D01*
X151416547Y-100242142D01*
X151368928Y-100146904D01*
X151321309Y-99956428D01*
X151321309Y-99718333D01*
X151368928Y-99527857D01*
X151416547Y-99432619D01*
X151464166Y-99385000D01*
X151559404Y-99337380D01*
X152273690Y-99432619D02*
X152321309Y-99385000D01*
X152416547Y-99337380D01*
X152654642Y-99337380D01*
X152749880Y-99385000D01*
X152797500Y-99432619D01*
X152845119Y-99527857D01*
X152845119Y-99623095D01*
X152797500Y-99765952D01*
X152226071Y-100337380D01*
X152845119Y-100337380D01*
X153226071Y-99432619D02*
X153273690Y-99385000D01*
X153368928Y-99337380D01*
X153607023Y-99337380D01*
X153702261Y-99385000D01*
X153749880Y-99432619D01*
X153797500Y-99527857D01*
X153797500Y-99623095D01*
X153749880Y-99765952D01*
X153178452Y-100337380D01*
X153797500Y-100337380D01*
D11*
%TO.C,C7*%
X138200000Y-81080000D02*
X133660000Y-81080000D01*
X138200000Y-78940000D02*
X133660000Y-78940000D01*
X138200000Y-81080000D02*
X138200000Y-81065000D01*
X138200000Y-78955000D02*
X138200000Y-78940000D01*
X133660000Y-81080000D02*
X133660000Y-81065000D01*
X133660000Y-78955000D02*
X133660000Y-78940000D01*
%TO.C,C3*%
X150740000Y-93862082D02*
X151990000Y-93862082D01*
X151365000Y-94487082D02*
X151365000Y-93237082D01*
X154623000Y-81309000D02*
X155257000Y-81309000D01*
X154183000Y-81349000D02*
X155697000Y-81349000D01*
X153912000Y-81389000D02*
X155968000Y-81389000D01*
X153699000Y-81429000D02*
X156181000Y-81429000D01*
X153518000Y-81469000D02*
X156362000Y-81469000D01*
X153357000Y-81509000D02*
X156523000Y-81509000D01*
X153212000Y-81549000D02*
X156668000Y-81549000D01*
X153079000Y-81589000D02*
X156801000Y-81589000D01*
X152956000Y-81629000D02*
X156924000Y-81629000D01*
X152840000Y-81669000D02*
X157040000Y-81669000D01*
X152731000Y-81709000D02*
X157149000Y-81709000D01*
X152628000Y-81749000D02*
X157252000Y-81749000D01*
X152530000Y-81789000D02*
X157350000Y-81789000D01*
X152436000Y-81829000D02*
X157444000Y-81829000D01*
X152346000Y-81869000D02*
X157534000Y-81869000D01*
X152259000Y-81909000D02*
X157621000Y-81909000D01*
X152176000Y-81949000D02*
X157704000Y-81949000D01*
X152096000Y-81989000D02*
X157784000Y-81989000D01*
X152019000Y-82029000D02*
X157861000Y-82029000D01*
X151944000Y-82069000D02*
X157936000Y-82069000D01*
X151871000Y-82109000D02*
X158009000Y-82109000D01*
X151800000Y-82149000D02*
X158080000Y-82149000D01*
X151732000Y-82189000D02*
X158148000Y-82189000D01*
X151665000Y-82229000D02*
X158215000Y-82229000D01*
X151601000Y-82269000D02*
X158279000Y-82269000D01*
X151538000Y-82309000D02*
X158342000Y-82309000D01*
X151476000Y-82349000D02*
X158404000Y-82349000D01*
X151416000Y-82389000D02*
X158464000Y-82389000D01*
X151357000Y-82429000D02*
X158523000Y-82429000D01*
X151300000Y-82469000D02*
X158580000Y-82469000D01*
X151244000Y-82509000D02*
X158636000Y-82509000D01*
X151190000Y-82549000D02*
X158690000Y-82549000D01*
X151136000Y-82589000D02*
X158744000Y-82589000D01*
X151084000Y-82629000D02*
X158796000Y-82629000D01*
X151033000Y-82669000D02*
X158847000Y-82669000D01*
X150983000Y-82709000D02*
X158897000Y-82709000D01*
X150933000Y-82749000D02*
X158947000Y-82749000D01*
X150885000Y-82789000D02*
X158995000Y-82789000D01*
X150838000Y-82829000D02*
X159042000Y-82829000D01*
X150792000Y-82869000D02*
X159088000Y-82869000D01*
X150746000Y-82909000D02*
X159134000Y-82909000D01*
X150702000Y-82949000D02*
X159178000Y-82949000D01*
X150658000Y-82989000D02*
X159222000Y-82989000D01*
X150615000Y-83029000D02*
X159265000Y-83029000D01*
X150573000Y-83069000D02*
X159307000Y-83069000D01*
X150532000Y-83109000D02*
X159348000Y-83109000D01*
X150491000Y-83149000D02*
X159389000Y-83149000D01*
X150451000Y-83189000D02*
X159429000Y-83189000D01*
X150412000Y-83229000D02*
X159468000Y-83229000D01*
X150373000Y-83269000D02*
X159507000Y-83269000D01*
X150335000Y-83309000D02*
X159545000Y-83309000D01*
X150298000Y-83349000D02*
X159582000Y-83349000D01*
X150262000Y-83389000D02*
X159618000Y-83389000D01*
X150226000Y-83429000D02*
X159654000Y-83429000D01*
X150190000Y-83469000D02*
X159690000Y-83469000D01*
X150155000Y-83509000D02*
X159725000Y-83509000D01*
X150121000Y-83549000D02*
X159759000Y-83549000D01*
X150088000Y-83589000D02*
X159792000Y-83589000D01*
X150055000Y-83629000D02*
X159825000Y-83629000D01*
X150022000Y-83669000D02*
X159858000Y-83669000D01*
X149990000Y-83709000D02*
X159890000Y-83709000D01*
X156380000Y-83749000D02*
X159922000Y-83749000D01*
X149958000Y-83749000D02*
X153500000Y-83749000D01*
X156380000Y-83789000D02*
X159952000Y-83789000D01*
X149928000Y-83789000D02*
X153500000Y-83789000D01*
X156380000Y-83829000D02*
X159983000Y-83829000D01*
X149897000Y-83829000D02*
X153500000Y-83829000D01*
X156380000Y-83869000D02*
X160013000Y-83869000D01*
X149867000Y-83869000D02*
X153500000Y-83869000D01*
X156380000Y-83909000D02*
X160042000Y-83909000D01*
X149838000Y-83909000D02*
X153500000Y-83909000D01*
X156380000Y-83949000D02*
X160071000Y-83949000D01*
X149809000Y-83949000D02*
X153500000Y-83949000D01*
X156380000Y-83989000D02*
X160100000Y-83989000D01*
X149780000Y-83989000D02*
X153500000Y-83989000D01*
X156380000Y-84029000D02*
X160128000Y-84029000D01*
X149752000Y-84029000D02*
X153500000Y-84029000D01*
X156380000Y-84069000D02*
X160156000Y-84069000D01*
X149724000Y-84069000D02*
X153500000Y-84069000D01*
X156380000Y-84109000D02*
X160183000Y-84109000D01*
X149697000Y-84109000D02*
X153500000Y-84109000D01*
X156380000Y-84149000D02*
X160210000Y-84149000D01*
X149670000Y-84149000D02*
X153500000Y-84149000D01*
X156380000Y-84189000D02*
X160236000Y-84189000D01*
X149644000Y-84189000D02*
X153500000Y-84189000D01*
X156380000Y-84229000D02*
X160262000Y-84229000D01*
X149618000Y-84229000D02*
X153500000Y-84229000D01*
X156380000Y-84269000D02*
X160287000Y-84269000D01*
X149593000Y-84269000D02*
X153500000Y-84269000D01*
X156380000Y-84309000D02*
X160312000Y-84309000D01*
X149568000Y-84309000D02*
X153500000Y-84309000D01*
X156380000Y-84349000D02*
X160337000Y-84349000D01*
X149543000Y-84349000D02*
X153500000Y-84349000D01*
X156380000Y-84389000D02*
X160361000Y-84389000D01*
X149519000Y-84389000D02*
X153500000Y-84389000D01*
X156380000Y-84429000D02*
X160385000Y-84429000D01*
X149495000Y-84429000D02*
X153500000Y-84429000D01*
X156380000Y-84469000D02*
X160408000Y-84469000D01*
X149472000Y-84469000D02*
X153500000Y-84469000D01*
X156380000Y-84509000D02*
X160431000Y-84509000D01*
X149449000Y-84509000D02*
X153500000Y-84509000D01*
X156380000Y-84549000D02*
X160454000Y-84549000D01*
X149426000Y-84549000D02*
X153500000Y-84549000D01*
X156380000Y-84589000D02*
X160476000Y-84589000D01*
X149404000Y-84589000D02*
X153500000Y-84589000D01*
X156380000Y-84629000D02*
X160498000Y-84629000D01*
X149382000Y-84629000D02*
X153500000Y-84629000D01*
X156380000Y-84669000D02*
X160520000Y-84669000D01*
X149360000Y-84669000D02*
X153500000Y-84669000D01*
X156380000Y-84709000D02*
X160541000Y-84709000D01*
X149339000Y-84709000D02*
X153500000Y-84709000D01*
X156380000Y-84749000D02*
X160562000Y-84749000D01*
X149318000Y-84749000D02*
X153500000Y-84749000D01*
X156380000Y-84789000D02*
X160582000Y-84789000D01*
X149298000Y-84789000D02*
X153500000Y-84789000D01*
X156380000Y-84829000D02*
X160602000Y-84829000D01*
X149278000Y-84829000D02*
X153500000Y-84829000D01*
X156380000Y-84869000D02*
X160622000Y-84869000D01*
X149258000Y-84869000D02*
X153500000Y-84869000D01*
X156380000Y-84909000D02*
X160642000Y-84909000D01*
X149238000Y-84909000D02*
X153500000Y-84909000D01*
X156380000Y-84949000D02*
X160661000Y-84949000D01*
X149219000Y-84949000D02*
X153500000Y-84949000D01*
X156380000Y-84989000D02*
X160679000Y-84989000D01*
X149201000Y-84989000D02*
X153500000Y-84989000D01*
X156380000Y-85029000D02*
X160698000Y-85029000D01*
X149182000Y-85029000D02*
X153500000Y-85029000D01*
X156380000Y-85069000D02*
X160716000Y-85069000D01*
X149164000Y-85069000D02*
X153500000Y-85069000D01*
X156380000Y-85109000D02*
X160733000Y-85109000D01*
X149147000Y-85109000D02*
X153500000Y-85109000D01*
X156380000Y-85149000D02*
X160751000Y-85149000D01*
X149129000Y-85149000D02*
X153500000Y-85149000D01*
X156380000Y-85189000D02*
X160768000Y-85189000D01*
X149112000Y-85189000D02*
X153500000Y-85189000D01*
X156380000Y-85229000D02*
X160785000Y-85229000D01*
X149095000Y-85229000D02*
X153500000Y-85229000D01*
X156380000Y-85269000D02*
X160801000Y-85269000D01*
X149079000Y-85269000D02*
X153500000Y-85269000D01*
X156380000Y-85309000D02*
X160817000Y-85309000D01*
X149063000Y-85309000D02*
X153500000Y-85309000D01*
X156380000Y-85349000D02*
X160833000Y-85349000D01*
X149047000Y-85349000D02*
X153500000Y-85349000D01*
X156380000Y-85389000D02*
X160848000Y-85389000D01*
X149032000Y-85389000D02*
X153500000Y-85389000D01*
X156380000Y-85429000D02*
X160864000Y-85429000D01*
X149016000Y-85429000D02*
X153500000Y-85429000D01*
X156380000Y-85469000D02*
X160879000Y-85469000D01*
X149001000Y-85469000D02*
X153500000Y-85469000D01*
X156380000Y-85509000D02*
X160893000Y-85509000D01*
X148987000Y-85509000D02*
X153500000Y-85509000D01*
X156380000Y-85549000D02*
X160907000Y-85549000D01*
X148973000Y-85549000D02*
X153500000Y-85549000D01*
X156380000Y-85589000D02*
X160921000Y-85589000D01*
X148959000Y-85589000D02*
X153500000Y-85589000D01*
X156380000Y-85629000D02*
X160935000Y-85629000D01*
X148945000Y-85629000D02*
X153500000Y-85629000D01*
X156380000Y-85669000D02*
X160948000Y-85669000D01*
X148932000Y-85669000D02*
X153500000Y-85669000D01*
X156380000Y-85709000D02*
X160961000Y-85709000D01*
X148919000Y-85709000D02*
X153500000Y-85709000D01*
X156380000Y-85749000D02*
X160974000Y-85749000D01*
X148906000Y-85749000D02*
X153500000Y-85749000D01*
X156380000Y-85789000D02*
X160987000Y-85789000D01*
X148893000Y-85789000D02*
X153500000Y-85789000D01*
X156380000Y-85829000D02*
X160999000Y-85829000D01*
X148881000Y-85829000D02*
X153500000Y-85829000D01*
X156380000Y-85869000D02*
X161011000Y-85869000D01*
X148869000Y-85869000D02*
X153500000Y-85869000D01*
X156380000Y-85909000D02*
X161023000Y-85909000D01*
X148857000Y-85909000D02*
X153500000Y-85909000D01*
X156380000Y-85949000D02*
X161034000Y-85949000D01*
X148846000Y-85949000D02*
X153500000Y-85949000D01*
X156380000Y-85989000D02*
X161045000Y-85989000D01*
X148835000Y-85989000D02*
X153500000Y-85989000D01*
X156380000Y-86029000D02*
X161056000Y-86029000D01*
X148824000Y-86029000D02*
X153500000Y-86029000D01*
X156380000Y-86069000D02*
X161066000Y-86069000D01*
X148814000Y-86069000D02*
X153500000Y-86069000D01*
X156380000Y-86109000D02*
X161077000Y-86109000D01*
X148803000Y-86109000D02*
X153500000Y-86109000D01*
X156380000Y-86149000D02*
X161086000Y-86149000D01*
X148794000Y-86149000D02*
X153500000Y-86149000D01*
X156380000Y-86189000D02*
X161096000Y-86189000D01*
X148784000Y-86189000D02*
X153500000Y-86189000D01*
X156380000Y-86229000D02*
X161106000Y-86229000D01*
X148774000Y-86229000D02*
X153500000Y-86229000D01*
X156380000Y-86269000D02*
X161115000Y-86269000D01*
X148765000Y-86269000D02*
X153500000Y-86269000D01*
X156380000Y-86309000D02*
X161124000Y-86309000D01*
X148756000Y-86309000D02*
X153500000Y-86309000D01*
X156380000Y-86349000D02*
X161132000Y-86349000D01*
X148748000Y-86349000D02*
X153500000Y-86349000D01*
X156380000Y-86389000D02*
X161141000Y-86389000D01*
X148739000Y-86389000D02*
X153500000Y-86389000D01*
X156380000Y-86429000D02*
X161149000Y-86429000D01*
X148731000Y-86429000D02*
X153500000Y-86429000D01*
X156380000Y-86469000D02*
X161156000Y-86469000D01*
X148724000Y-86469000D02*
X153500000Y-86469000D01*
X156380000Y-86509000D02*
X161164000Y-86509000D01*
X148716000Y-86509000D02*
X153500000Y-86509000D01*
X156380000Y-86549000D02*
X161171000Y-86549000D01*
X148709000Y-86549000D02*
X153500000Y-86549000D01*
X156380000Y-86589000D02*
X161178000Y-86589000D01*
X148702000Y-86589000D02*
X153500000Y-86589000D01*
X148695000Y-86629000D02*
X161185000Y-86629000D01*
X148688000Y-86669000D02*
X161192000Y-86669000D01*
X148682000Y-86709000D02*
X161198000Y-86709000D01*
X148676000Y-86749000D02*
X161204000Y-86749000D01*
X148671000Y-86789000D02*
X161209000Y-86789000D01*
X148665000Y-86829000D02*
X161215000Y-86829000D01*
X148660000Y-86869000D02*
X161220000Y-86869000D01*
X148655000Y-86909000D02*
X161225000Y-86909000D01*
X148650000Y-86949000D02*
X161230000Y-86949000D01*
X148646000Y-86990000D02*
X161234000Y-86990000D01*
X148642000Y-87030000D02*
X161238000Y-87030000D01*
X148638000Y-87070000D02*
X161242000Y-87070000D01*
X148634000Y-87110000D02*
X161246000Y-87110000D01*
X148631000Y-87150000D02*
X161249000Y-87150000D01*
X148628000Y-87190000D02*
X161252000Y-87190000D01*
X148625000Y-87230000D02*
X161255000Y-87230000D01*
X148622000Y-87270000D02*
X161258000Y-87270000D01*
X148620000Y-87310000D02*
X161260000Y-87310000D01*
X148618000Y-87350000D02*
X161262000Y-87350000D01*
X148616000Y-87390000D02*
X161264000Y-87390000D01*
X148614000Y-87430000D02*
X161266000Y-87430000D01*
X148613000Y-87470000D02*
X161267000Y-87470000D01*
X148612000Y-87510000D02*
X161268000Y-87510000D01*
X148611000Y-87550000D02*
X161269000Y-87550000D01*
X148610000Y-87590000D02*
X161270000Y-87590000D01*
X148610000Y-87630000D02*
X161270000Y-87630000D01*
X148610000Y-87670000D02*
X161270000Y-87670000D01*
X161310000Y-87670000D02*
G75*
G03*
X161310000Y-87670000I-6370000J0D01*
G01*
%TO.C,R1*%
X123730000Y-71020000D02*
X123730000Y-71350000D01*
X130270000Y-71020000D02*
X123730000Y-71020000D01*
X130270000Y-71350000D02*
X130270000Y-71020000D01*
X123730000Y-73760000D02*
X123730000Y-73430000D01*
X130270000Y-73760000D02*
X123730000Y-73760000D01*
X130270000Y-73430000D02*
X130270000Y-73760000D01*
%TO.C,J13*%
X164010000Y-70820000D02*
X164010000Y-71320000D01*
X164750000Y-70820000D02*
X164010000Y-70820000D01*
X167887000Y-77513000D02*
X167841000Y-77466000D01*
X170185000Y-79810000D02*
X170149000Y-79775000D01*
X167671000Y-77706000D02*
X167636000Y-77671000D01*
X169979000Y-80015000D02*
X169933000Y-79968000D01*
X174171000Y-81340000D02*
X164250000Y-81340000D01*
X174171000Y-71060000D02*
X164250000Y-71060000D01*
X164250000Y-71060000D02*
X164250000Y-81340000D01*
X174171000Y-71060000D02*
X174171000Y-81340000D01*
X171211000Y-71060000D02*
X171211000Y-81340000D01*
X166310000Y-71060000D02*
X166310000Y-81340000D01*
X164810000Y-71060000D02*
X164810000Y-81340000D01*
X170590000Y-78740000D02*
G75*
G03*
X170590000Y-78740000I-1680000J0D01*
G01*
X167229747Y-73688805D02*
G75*
G02*
X167375000Y-72976000I1680253J28805D01*
G01*
X168226958Y-72124574D02*
G75*
G02*
X169594000Y-72125000I683042J-1535426D01*
G01*
X170445426Y-72976958D02*
G75*
G02*
X170445000Y-74344000I-1535426J-683042D01*
G01*
X169593042Y-75195426D02*
G75*
G02*
X168226000Y-75195000I-683042J1535426D01*
G01*
X167375244Y-74343318D02*
G75*
G02*
X167230000Y-73660000I1534756J683318D01*
G01*
%TO.C,J12*%
X164010000Y-80980000D02*
X164010000Y-81480000D01*
X164750000Y-80980000D02*
X164010000Y-80980000D01*
X167887000Y-87673000D02*
X167841000Y-87626000D01*
X170185000Y-89970000D02*
X170149000Y-89935000D01*
X167671000Y-87866000D02*
X167636000Y-87831000D01*
X169979000Y-90175000D02*
X169933000Y-90128000D01*
X174171000Y-91500000D02*
X164250000Y-91500000D01*
X174171000Y-81220000D02*
X164250000Y-81220000D01*
X164250000Y-81220000D02*
X164250000Y-91500000D01*
X174171000Y-81220000D02*
X174171000Y-91500000D01*
X171211000Y-81220000D02*
X171211000Y-91500000D01*
X166310000Y-81220000D02*
X166310000Y-91500000D01*
X164810000Y-81220000D02*
X164810000Y-91500000D01*
X170590000Y-88900000D02*
G75*
G03*
X170590000Y-88900000I-1680000J0D01*
G01*
X167229747Y-83848805D02*
G75*
G02*
X167375000Y-83136000I1680253J28805D01*
G01*
X168226958Y-82284574D02*
G75*
G02*
X169594000Y-82285000I683042J-1535426D01*
G01*
X170445426Y-83136958D02*
G75*
G02*
X170445000Y-84504000I-1535426J-683042D01*
G01*
X169593042Y-85355426D02*
G75*
G02*
X168226000Y-85355000I-683042J1535426D01*
G01*
X167375244Y-84503318D02*
G75*
G02*
X167230000Y-83820000I1534756J683318D01*
G01*
%TO.C,J10*%
X95490000Y-79300000D02*
X95490000Y-81300000D01*
X92890000Y-79300000D02*
X92890000Y-81300000D01*
X101990000Y-79300000D02*
X95490000Y-79300000D01*
X106390000Y-79300000D02*
X105190000Y-79300000D01*
X106390000Y-77050000D02*
X106390000Y-79300000D01*
X106390000Y-73100000D02*
X106390000Y-73850000D01*
X97490000Y-73100000D02*
X106390000Y-73100000D01*
X91690000Y-73100000D02*
X94890000Y-73100000D01*
X91690000Y-73600000D02*
X91690000Y-73100000D01*
X89190000Y-73600000D02*
X91690000Y-73600000D01*
X89190000Y-78800000D02*
X89190000Y-73600000D01*
X91690000Y-78800000D02*
X89190000Y-78800000D01*
X91690000Y-79300000D02*
X91690000Y-78800000D01*
X92890000Y-79300000D02*
X91690000Y-79300000D01*
%TO.C,U4*%
X130750000Y-84980000D02*
X130750000Y-86630000D01*
X141030000Y-84980000D02*
X130750000Y-84980000D01*
X141030000Y-90280000D02*
X141030000Y-84980000D01*
X130750000Y-90280000D02*
X141030000Y-90280000D01*
X130750000Y-88630000D02*
X130750000Y-90280000D01*
X130750000Y-86630000D02*
G75*
G02*
X130750000Y-88630000I0J-1000000D01*
G01*
%TO.C,U3*%
X128915000Y-109220000D02*
X128915000Y-112670000D01*
X128915000Y-109220000D02*
X128915000Y-107270000D01*
X137785000Y-109220000D02*
X137785000Y-111170000D01*
X137785000Y-109220000D02*
X137785000Y-107270000D01*
D12*
%TO.C,U2*%
G36*
X106553000Y-91567000D02*
G01*
X106807000Y-91313000D01*
X107061000Y-91694000D01*
X106807000Y-91948000D01*
X106553000Y-91567000D01*
G37*
X106553000Y-91567000D02*
X106807000Y-91313000D01*
X107061000Y-91694000D01*
X106807000Y-91948000D01*
X106553000Y-91567000D01*
G36*
X106934000Y-91186000D02*
G01*
X107188000Y-90932000D01*
X107442000Y-91313000D01*
X107188000Y-91567000D01*
X106934000Y-91186000D01*
G37*
X106934000Y-91186000D02*
X107188000Y-90932000D01*
X107442000Y-91313000D01*
X107188000Y-91567000D01*
X106934000Y-91186000D01*
G36*
X108839000Y-91948000D02*
G01*
X109093000Y-91694000D01*
X109347000Y-92075000D01*
X109093000Y-92329000D01*
X108839000Y-91948000D01*
G37*
X108839000Y-91948000D02*
X109093000Y-91694000D01*
X109347000Y-92075000D01*
X109093000Y-92329000D01*
X108839000Y-91948000D01*
G36*
X108458000Y-91440000D02*
G01*
X108712000Y-91186000D01*
X108966000Y-91567000D01*
X108712000Y-91821000D01*
X108458000Y-91440000D01*
G37*
X108458000Y-91440000D02*
X108712000Y-91186000D01*
X108966000Y-91567000D01*
X108712000Y-91821000D01*
X108458000Y-91440000D01*
G36*
X108077000Y-90932000D02*
G01*
X108331000Y-90678000D01*
X108585000Y-91059000D01*
X108331000Y-91313000D01*
X108077000Y-90932000D01*
G37*
X108077000Y-90932000D02*
X108331000Y-90678000D01*
X108585000Y-91059000D01*
X108331000Y-91313000D01*
X108077000Y-90932000D01*
G36*
X108077000Y-91821000D02*
G01*
X108331000Y-91567000D01*
X108585000Y-91948000D01*
X108331000Y-92202000D01*
X108077000Y-91821000D01*
G37*
X108077000Y-91821000D02*
X108331000Y-91567000D01*
X108585000Y-91948000D01*
X108331000Y-92202000D01*
X108077000Y-91821000D01*
G36*
X107696000Y-91313000D02*
G01*
X107950000Y-91059000D01*
X108204000Y-91440000D01*
X107950000Y-91694000D01*
X107696000Y-91313000D01*
G37*
X107696000Y-91313000D02*
X107950000Y-91059000D01*
X108204000Y-91440000D01*
X107950000Y-91694000D01*
X107696000Y-91313000D01*
G36*
X107315000Y-90805000D02*
G01*
X107569000Y-90551000D01*
X107823000Y-90932000D01*
X107569000Y-91186000D01*
X107315000Y-90805000D01*
G37*
X107315000Y-90805000D02*
X107569000Y-90551000D01*
X107823000Y-90932000D01*
X107569000Y-91186000D01*
X107315000Y-90805000D01*
D10*
X115570000Y-89535000D02*
X115570000Y-86360000D01*
X118110000Y-89535000D02*
X115570000Y-89535000D01*
X118110000Y-86360000D02*
X118110000Y-89535000D01*
X115570000Y-86360000D02*
X118110000Y-86360000D01*
X92710000Y-100330000D02*
X92710000Y-82550000D01*
X128270000Y-100330000D02*
X92710000Y-100330000D01*
X128270000Y-82550000D02*
X128270000Y-100330000D01*
X92710000Y-82550000D02*
X128270000Y-82550000D01*
X114935000Y-96520000D02*
X104775000Y-96520000D01*
X114935000Y-86360000D02*
X104775000Y-86360000D01*
X104775000Y-86360000D02*
X104775000Y-96520000D01*
X114935000Y-96520000D02*
X114935000Y-86360000D01*
X120650000Y-90170000D02*
X125222000Y-90170000D01*
X120650000Y-92710000D02*
X120650000Y-90170000D01*
X125222000Y-92710000D02*
X120650000Y-92710000D01*
X125222000Y-90170000D02*
X125222000Y-92710000D01*
X97790000Y-95250000D02*
X92710000Y-95250000D01*
X97790000Y-87630000D02*
X92710000Y-87630000D01*
X97790000Y-95250000D02*
X97790000Y-87630000D01*
X91440000Y-87630000D02*
X92710000Y-87630000D01*
X91440000Y-95250000D02*
X91440000Y-87630000D01*
X92710000Y-95250000D02*
X91440000Y-95250000D01*
D11*
%TO.C,U1*%
X112405000Y-109220000D02*
X112405000Y-112670000D01*
X112405000Y-109220000D02*
X112405000Y-107270000D01*
X121275000Y-109220000D02*
X121275000Y-111170000D01*
X121275000Y-109220000D02*
X121275000Y-107270000D01*
%TO.C,R3*%
X123730000Y-78640000D02*
X123730000Y-78970000D01*
X130270000Y-78640000D02*
X123730000Y-78640000D01*
X130270000Y-78970000D02*
X130270000Y-78640000D01*
X123730000Y-81380000D02*
X123730000Y-81050000D01*
X130270000Y-81380000D02*
X123730000Y-81380000D01*
X130270000Y-81050000D02*
X130270000Y-81380000D01*
%TO.C,R2*%
X123730000Y-74830000D02*
X123730000Y-75160000D01*
X130270000Y-74830000D02*
X123730000Y-74830000D01*
X130270000Y-75160000D02*
X130270000Y-74830000D01*
X123730000Y-77570000D02*
X123730000Y-77240000D01*
X130270000Y-77570000D02*
X123730000Y-77570000D01*
X130270000Y-77240000D02*
X130270000Y-77570000D01*
%TO.C,J11*%
X153370000Y-126820000D02*
X153870000Y-126820000D01*
X153370000Y-126080000D02*
X153370000Y-126820000D01*
X160063000Y-122943000D02*
X160016000Y-122989000D01*
X162360000Y-120645000D02*
X162325000Y-120681000D01*
X160256000Y-123159000D02*
X160221000Y-123194000D01*
X162565000Y-120851000D02*
X162518000Y-120897000D01*
X163890000Y-116659000D02*
X163890000Y-126580000D01*
X153610000Y-116659000D02*
X153610000Y-126580000D01*
X153610000Y-126580000D02*
X163890000Y-126580000D01*
X153610000Y-116659000D02*
X163890000Y-116659000D01*
X153610000Y-119619000D02*
X163890000Y-119619000D01*
X153610000Y-124520000D02*
X163890000Y-124520000D01*
X153610000Y-126020000D02*
X163890000Y-126020000D01*
X162970000Y-121920000D02*
G75*
G03*
X162970000Y-121920000I-1680000J0D01*
G01*
X156238805Y-123600253D02*
G75*
G02*
X155526000Y-123455000I-28805J1680253D01*
G01*
X154674574Y-122603042D02*
G75*
G02*
X154675000Y-121236000I1535426J683042D01*
G01*
X155526958Y-120384574D02*
G75*
G02*
X156894000Y-120385000I683042J-1535426D01*
G01*
X157745426Y-121236958D02*
G75*
G02*
X157745000Y-122604000I-1535426J-683042D01*
G01*
X156893318Y-123454756D02*
G75*
G02*
X156210000Y-123600000I-683318J1534756D01*
G01*
%TO.C,J9*%
X163530000Y-126820000D02*
X164030000Y-126820000D01*
X163530000Y-126080000D02*
X163530000Y-126820000D01*
X170223000Y-122943000D02*
X170176000Y-122989000D01*
X172520000Y-120645000D02*
X172485000Y-120681000D01*
X170416000Y-123159000D02*
X170381000Y-123194000D01*
X172725000Y-120851000D02*
X172678000Y-120897000D01*
X174050000Y-116659000D02*
X174050000Y-126580000D01*
X163770000Y-116659000D02*
X163770000Y-126580000D01*
X163770000Y-126580000D02*
X174050000Y-126580000D01*
X163770000Y-116659000D02*
X174050000Y-116659000D01*
X163770000Y-119619000D02*
X174050000Y-119619000D01*
X163770000Y-124520000D02*
X174050000Y-124520000D01*
X163770000Y-126020000D02*
X174050000Y-126020000D01*
X173130000Y-121920000D02*
G75*
G03*
X173130000Y-121920000I-1680000J0D01*
G01*
X166398805Y-123600253D02*
G75*
G02*
X165686000Y-123455000I-28805J1680253D01*
G01*
X164834574Y-122603042D02*
G75*
G02*
X164835000Y-121236000I1535426J683042D01*
G01*
X165686958Y-120384574D02*
G75*
G02*
X167054000Y-120385000I683042J-1535426D01*
G01*
X167905426Y-121236958D02*
G75*
G02*
X167905000Y-122604000I-1535426J-683042D01*
G01*
X167053318Y-123454756D02*
G75*
G02*
X166370000Y-123600000I-683318J1534756D01*
G01*
%TO.C,J8*%
X143210000Y-126820000D02*
X143710000Y-126820000D01*
X143210000Y-126080000D02*
X143210000Y-126820000D01*
X149903000Y-122943000D02*
X149856000Y-122989000D01*
X152200000Y-120645000D02*
X152165000Y-120681000D01*
X150096000Y-123159000D02*
X150061000Y-123194000D01*
X152405000Y-120851000D02*
X152358000Y-120897000D01*
X153730000Y-116659000D02*
X153730000Y-126580000D01*
X143450000Y-116659000D02*
X143450000Y-126580000D01*
X143450000Y-126580000D02*
X153730000Y-126580000D01*
X143450000Y-116659000D02*
X153730000Y-116659000D01*
X143450000Y-119619000D02*
X153730000Y-119619000D01*
X143450000Y-124520000D02*
X153730000Y-124520000D01*
X143450000Y-126020000D02*
X153730000Y-126020000D01*
X152810000Y-121920000D02*
G75*
G03*
X152810000Y-121920000I-1680000J0D01*
G01*
X146078805Y-123600253D02*
G75*
G02*
X145366000Y-123455000I-28805J1680253D01*
G01*
X144514574Y-122603042D02*
G75*
G02*
X144515000Y-121236000I1535426J683042D01*
G01*
X145366958Y-120384574D02*
G75*
G02*
X146734000Y-120385000I683042J-1535426D01*
G01*
X147585426Y-121236958D02*
G75*
G02*
X147585000Y-122604000I-1535426J-683042D01*
G01*
X146733318Y-123454756D02*
G75*
G02*
X146050000Y-123600000I-683318J1534756D01*
G01*
%TO.C,J7*%
X133050000Y-126820000D02*
X133550000Y-126820000D01*
X133050000Y-126080000D02*
X133050000Y-126820000D01*
X139743000Y-122943000D02*
X139696000Y-122989000D01*
X142040000Y-120645000D02*
X142005000Y-120681000D01*
X139936000Y-123159000D02*
X139901000Y-123194000D01*
X142245000Y-120851000D02*
X142198000Y-120897000D01*
X143570000Y-116659000D02*
X143570000Y-126580000D01*
X133290000Y-116659000D02*
X133290000Y-126580000D01*
X133290000Y-126580000D02*
X143570000Y-126580000D01*
X133290000Y-116659000D02*
X143570000Y-116659000D01*
X133290000Y-119619000D02*
X143570000Y-119619000D01*
X133290000Y-124520000D02*
X143570000Y-124520000D01*
X133290000Y-126020000D02*
X143570000Y-126020000D01*
X142650000Y-121920000D02*
G75*
G03*
X142650000Y-121920000I-1680000J0D01*
G01*
X135918805Y-123600253D02*
G75*
G02*
X135206000Y-123455000I-28805J1680253D01*
G01*
X134354574Y-122603042D02*
G75*
G02*
X134355000Y-121236000I1535426J683042D01*
G01*
X135206958Y-120384574D02*
G75*
G02*
X136574000Y-120385000I683042J-1535426D01*
G01*
X137425426Y-121236958D02*
G75*
G02*
X137425000Y-122604000I-1535426J-683042D01*
G01*
X136573318Y-123454756D02*
G75*
G02*
X135890000Y-123600000I-683318J1534756D01*
G01*
%TO.C,J6*%
X112730000Y-126820000D02*
X113230000Y-126820000D01*
X112730000Y-126080000D02*
X112730000Y-126820000D01*
X119423000Y-122943000D02*
X119376000Y-122989000D01*
X121720000Y-120645000D02*
X121685000Y-120681000D01*
X119616000Y-123159000D02*
X119581000Y-123194000D01*
X121925000Y-120851000D02*
X121878000Y-120897000D01*
X123250000Y-116659000D02*
X123250000Y-126580000D01*
X112970000Y-116659000D02*
X112970000Y-126580000D01*
X112970000Y-126580000D02*
X123250000Y-126580000D01*
X112970000Y-116659000D02*
X123250000Y-116659000D01*
X112970000Y-119619000D02*
X123250000Y-119619000D01*
X112970000Y-124520000D02*
X123250000Y-124520000D01*
X112970000Y-126020000D02*
X123250000Y-126020000D01*
X122330000Y-121920000D02*
G75*
G03*
X122330000Y-121920000I-1680000J0D01*
G01*
X115598805Y-123600253D02*
G75*
G02*
X114886000Y-123455000I-28805J1680253D01*
G01*
X114034574Y-122603042D02*
G75*
G02*
X114035000Y-121236000I1535426J683042D01*
G01*
X114886958Y-120384574D02*
G75*
G02*
X116254000Y-120385000I683042J-1535426D01*
G01*
X117105426Y-121236958D02*
G75*
G02*
X117105000Y-122604000I-1535426J-683042D01*
G01*
X116253318Y-123454756D02*
G75*
G02*
X115570000Y-123600000I-683318J1534756D01*
G01*
%TO.C,J5*%
X122890000Y-126820000D02*
X123390000Y-126820000D01*
X122890000Y-126080000D02*
X122890000Y-126820000D01*
X129583000Y-122943000D02*
X129536000Y-122989000D01*
X131880000Y-120645000D02*
X131845000Y-120681000D01*
X129776000Y-123159000D02*
X129741000Y-123194000D01*
X132085000Y-120851000D02*
X132038000Y-120897000D01*
X133410000Y-116659000D02*
X133410000Y-126580000D01*
X123130000Y-116659000D02*
X123130000Y-126580000D01*
X123130000Y-126580000D02*
X133410000Y-126580000D01*
X123130000Y-116659000D02*
X133410000Y-116659000D01*
X123130000Y-119619000D02*
X133410000Y-119619000D01*
X123130000Y-124520000D02*
X133410000Y-124520000D01*
X123130000Y-126020000D02*
X133410000Y-126020000D01*
X132490000Y-121920000D02*
G75*
G03*
X132490000Y-121920000I-1680000J0D01*
G01*
X125758805Y-123600253D02*
G75*
G02*
X125046000Y-123455000I-28805J1680253D01*
G01*
X124194574Y-122603042D02*
G75*
G02*
X124195000Y-121236000I1535426J683042D01*
G01*
X125046958Y-120384574D02*
G75*
G02*
X126414000Y-120385000I683042J-1535426D01*
G01*
X127265426Y-121236958D02*
G75*
G02*
X127265000Y-122604000I-1535426J-683042D01*
G01*
X126413318Y-123454756D02*
G75*
G02*
X125730000Y-123600000I-683318J1534756D01*
G01*
%TO.C,J4*%
X102570000Y-126820000D02*
X103070000Y-126820000D01*
X102570000Y-126080000D02*
X102570000Y-126820000D01*
X109263000Y-122943000D02*
X109216000Y-122989000D01*
X111560000Y-120645000D02*
X111525000Y-120681000D01*
X109456000Y-123159000D02*
X109421000Y-123194000D01*
X111765000Y-120851000D02*
X111718000Y-120897000D01*
X113090000Y-116659000D02*
X113090000Y-126580000D01*
X102810000Y-116659000D02*
X102810000Y-126580000D01*
X102810000Y-126580000D02*
X113090000Y-126580000D01*
X102810000Y-116659000D02*
X113090000Y-116659000D01*
X102810000Y-119619000D02*
X113090000Y-119619000D01*
X102810000Y-124520000D02*
X113090000Y-124520000D01*
X102810000Y-126020000D02*
X113090000Y-126020000D01*
X112170000Y-121920000D02*
G75*
G03*
X112170000Y-121920000I-1680000J0D01*
G01*
X105438805Y-123600253D02*
G75*
G02*
X104726000Y-123455000I-28805J1680253D01*
G01*
X103874574Y-122603042D02*
G75*
G02*
X103875000Y-121236000I1535426J683042D01*
G01*
X104726958Y-120384574D02*
G75*
G02*
X106094000Y-120385000I683042J-1535426D01*
G01*
X106945426Y-121236958D02*
G75*
G02*
X106945000Y-122604000I-1535426J-683042D01*
G01*
X106093318Y-123454756D02*
G75*
G02*
X105410000Y-123600000I-683318J1534756D01*
G01*
%TO.C,J3*%
X92410000Y-126820000D02*
X92910000Y-126820000D01*
X92410000Y-126080000D02*
X92410000Y-126820000D01*
X99103000Y-122943000D02*
X99056000Y-122989000D01*
X101400000Y-120645000D02*
X101365000Y-120681000D01*
X99296000Y-123159000D02*
X99261000Y-123194000D01*
X101605000Y-120851000D02*
X101558000Y-120897000D01*
X102930000Y-116659000D02*
X102930000Y-126580000D01*
X92650000Y-116659000D02*
X92650000Y-126580000D01*
X92650000Y-126580000D02*
X102930000Y-126580000D01*
X92650000Y-116659000D02*
X102930000Y-116659000D01*
X92650000Y-119619000D02*
X102930000Y-119619000D01*
X92650000Y-124520000D02*
X102930000Y-124520000D01*
X92650000Y-126020000D02*
X102930000Y-126020000D01*
X102010000Y-121920000D02*
G75*
G03*
X102010000Y-121920000I-1680000J0D01*
G01*
X95278805Y-123600253D02*
G75*
G02*
X94566000Y-123455000I-28805J1680253D01*
G01*
X93714574Y-122603042D02*
G75*
G02*
X93715000Y-121236000I1535426J683042D01*
G01*
X94566958Y-120384574D02*
G75*
G02*
X95934000Y-120385000I683042J-1535426D01*
G01*
X96785426Y-121236958D02*
G75*
G02*
X96785000Y-122604000I-1535426J-683042D01*
G01*
X95933318Y-123454756D02*
G75*
G02*
X95250000Y-123600000I-683318J1534756D01*
G01*
%TO.C,J2*%
X164010000Y-93680000D02*
X164010000Y-94180000D01*
X164750000Y-93680000D02*
X164010000Y-93680000D01*
X167887000Y-100373000D02*
X167841000Y-100326000D01*
X170185000Y-102670000D02*
X170149000Y-102635000D01*
X167671000Y-100566000D02*
X167636000Y-100531000D01*
X169979000Y-102875000D02*
X169933000Y-102828000D01*
X174171000Y-104200000D02*
X164250000Y-104200000D01*
X174171000Y-93920000D02*
X164250000Y-93920000D01*
X164250000Y-93920000D02*
X164250000Y-104200000D01*
X174171000Y-93920000D02*
X174171000Y-104200000D01*
X171211000Y-93920000D02*
X171211000Y-104200000D01*
X166310000Y-93920000D02*
X166310000Y-104200000D01*
X164810000Y-93920000D02*
X164810000Y-104200000D01*
X170590000Y-101600000D02*
G75*
G03*
X170590000Y-101600000I-1680000J0D01*
G01*
X167229747Y-96548805D02*
G75*
G02*
X167375000Y-95836000I1680253J28805D01*
G01*
X168226958Y-94984574D02*
G75*
G02*
X169594000Y-94985000I683042J-1535426D01*
G01*
X170445426Y-95836958D02*
G75*
G02*
X170445000Y-97204000I-1535426J-683042D01*
G01*
X169593042Y-98055426D02*
G75*
G02*
X168226000Y-98055000I-683042J1535426D01*
G01*
X167375244Y-97203318D02*
G75*
G02*
X167230000Y-96520000I1534756J683318D01*
G01*
%TO.C,J1*%
X164010000Y-103840000D02*
X164010000Y-104340000D01*
X164750000Y-103840000D02*
X164010000Y-103840000D01*
X167887000Y-110533000D02*
X167841000Y-110486000D01*
X170185000Y-112830000D02*
X170149000Y-112795000D01*
X167671000Y-110726000D02*
X167636000Y-110691000D01*
X169979000Y-113035000D02*
X169933000Y-112988000D01*
X174171000Y-114360000D02*
X164250000Y-114360000D01*
X174171000Y-104080000D02*
X164250000Y-104080000D01*
X164250000Y-104080000D02*
X164250000Y-114360000D01*
X174171000Y-104080000D02*
X174171000Y-114360000D01*
X171211000Y-104080000D02*
X171211000Y-114360000D01*
X166310000Y-104080000D02*
X166310000Y-114360000D01*
X164810000Y-104080000D02*
X164810000Y-114360000D01*
X170590000Y-111760000D02*
G75*
G03*
X170590000Y-111760000I-1680000J0D01*
G01*
X167229747Y-106708805D02*
G75*
G02*
X167375000Y-105996000I1680253J28805D01*
G01*
X168226958Y-105144574D02*
G75*
G02*
X169594000Y-105145000I683042J-1535426D01*
G01*
X170445426Y-105996958D02*
G75*
G02*
X170445000Y-107364000I-1535426J-683042D01*
G01*
X169593042Y-108215426D02*
G75*
G02*
X168226000Y-108215000I-683042J1535426D01*
G01*
X167375244Y-107363318D02*
G75*
G02*
X167230000Y-106680000I1534756J683318D01*
G01*
%TO.C,C6*%
X138120000Y-77255000D02*
X138120000Y-77270000D01*
X138120000Y-75130000D02*
X138120000Y-75145000D01*
X133580000Y-77255000D02*
X133580000Y-77270000D01*
X133580000Y-75130000D02*
X133580000Y-75145000D01*
X133580000Y-77270000D02*
X138120000Y-77270000D01*
X133580000Y-75130000D02*
X138120000Y-75130000D01*
%TO.C,C5*%
X138120000Y-73445000D02*
X138120000Y-73460000D01*
X138120000Y-71320000D02*
X138120000Y-71335000D01*
X133580000Y-73445000D02*
X133580000Y-73460000D01*
X133580000Y-71320000D02*
X133580000Y-71335000D01*
X133580000Y-73460000D02*
X138120000Y-73460000D01*
X133580000Y-71320000D02*
X138120000Y-71320000D01*
%TO.C,C4*%
X132390000Y-94195000D02*
X132390000Y-94180000D01*
X132390000Y-96320000D02*
X132390000Y-96305000D01*
X136930000Y-94195000D02*
X136930000Y-94180000D01*
X136930000Y-96320000D02*
X136930000Y-96305000D01*
X136930000Y-94180000D02*
X132390000Y-94180000D01*
X136930000Y-96320000D02*
X132390000Y-96320000D01*
%TO.C,C2*%
X126785000Y-106990000D02*
X126800000Y-106990000D01*
X124660000Y-106990000D02*
X124675000Y-106990000D01*
X126785000Y-111530000D02*
X126800000Y-111530000D01*
X124660000Y-111530000D02*
X124675000Y-111530000D01*
X126800000Y-111530000D02*
X126800000Y-106990000D01*
X124660000Y-111530000D02*
X124660000Y-106990000D01*
%TO.C,C1*%
X110275000Y-106990000D02*
X110290000Y-106990000D01*
X108150000Y-106990000D02*
X108165000Y-106990000D01*
X110275000Y-111530000D02*
X110290000Y-111530000D01*
X108150000Y-111530000D02*
X108165000Y-111530000D01*
X110290000Y-111530000D02*
X110290000Y-106990000D01*
X108150000Y-111530000D02*
X108150000Y-106990000D01*
%TO.C,C7*%
D10*
X140803333Y-80367142D02*
X140755714Y-80414761D01*
X140612857Y-80462380D01*
X140517619Y-80462380D01*
X140374761Y-80414761D01*
X140279523Y-80319523D01*
X140231904Y-80224285D01*
X140184285Y-80033809D01*
X140184285Y-79890952D01*
X140231904Y-79700476D01*
X140279523Y-79605238D01*
X140374761Y-79510000D01*
X140517619Y-79462380D01*
X140612857Y-79462380D01*
X140755714Y-79510000D01*
X140803333Y-79557619D01*
X141136666Y-79462380D02*
X141803333Y-79462380D01*
X141374761Y-80462380D01*
%TO.C,C3*%
X147153333Y-90527142D02*
X147105714Y-90574761D01*
X146962857Y-90622380D01*
X146867619Y-90622380D01*
X146724761Y-90574761D01*
X146629523Y-90479523D01*
X146581904Y-90384285D01*
X146534285Y-90193809D01*
X146534285Y-90050952D01*
X146581904Y-89860476D01*
X146629523Y-89765238D01*
X146724761Y-89670000D01*
X146867619Y-89622380D01*
X146962857Y-89622380D01*
X147105714Y-89670000D01*
X147153333Y-89717619D01*
X147486666Y-89622380D02*
X148105714Y-89622380D01*
X147772380Y-90003333D01*
X147915238Y-90003333D01*
X148010476Y-90050952D01*
X148058095Y-90098571D01*
X148105714Y-90193809D01*
X148105714Y-90431904D01*
X148058095Y-90527142D01*
X148010476Y-90574761D01*
X147915238Y-90622380D01*
X147629523Y-90622380D01*
X147534285Y-90574761D01*
X147486666Y-90527142D01*
%TO.C,R1*%
X120483333Y-72842380D02*
X120150000Y-72366190D01*
X119911904Y-72842380D02*
X119911904Y-71842380D01*
X120292857Y-71842380D01*
X120388095Y-71890000D01*
X120435714Y-71937619D01*
X120483333Y-72032857D01*
X120483333Y-72175714D01*
X120435714Y-72270952D01*
X120388095Y-72318571D01*
X120292857Y-72366190D01*
X119911904Y-72366190D01*
X121435714Y-72842380D02*
X120864285Y-72842380D01*
X121150000Y-72842380D02*
X121150000Y-71842380D01*
X121054761Y-71985238D01*
X120959523Y-72080476D01*
X120864285Y-72128095D01*
%TO.C,J13*%
X174622380Y-77009523D02*
X175336666Y-77009523D01*
X175479523Y-77057142D01*
X175574761Y-77152380D01*
X175622380Y-77295238D01*
X175622380Y-77390476D01*
X175622380Y-76009523D02*
X175622380Y-76580952D01*
X175622380Y-76295238D02*
X174622380Y-76295238D01*
X174765238Y-76390476D01*
X174860476Y-76485714D01*
X174908095Y-76580952D01*
X174622380Y-75676190D02*
X174622380Y-75057142D01*
X175003333Y-75390476D01*
X175003333Y-75247619D01*
X175050952Y-75152380D01*
X175098571Y-75104761D01*
X175193809Y-75057142D01*
X175431904Y-75057142D01*
X175527142Y-75104761D01*
X175574761Y-75152380D01*
X175622380Y-75247619D01*
X175622380Y-75533333D01*
X175574761Y-75628571D01*
X175527142Y-75676190D01*
%TO.C,J12*%
X174622380Y-87169523D02*
X175336666Y-87169523D01*
X175479523Y-87217142D01*
X175574761Y-87312380D01*
X175622380Y-87455238D01*
X175622380Y-87550476D01*
X175622380Y-86169523D02*
X175622380Y-86740952D01*
X175622380Y-86455238D02*
X174622380Y-86455238D01*
X174765238Y-86550476D01*
X174860476Y-86645714D01*
X174908095Y-86740952D01*
X174717619Y-85788571D02*
X174670000Y-85740952D01*
X174622380Y-85645714D01*
X174622380Y-85407619D01*
X174670000Y-85312380D01*
X174717619Y-85264761D01*
X174812857Y-85217142D01*
X174908095Y-85217142D01*
X175050952Y-85264761D01*
X175622380Y-85836190D01*
X175622380Y-85217142D01*
%TO.C,H4*%
X151638095Y-72452380D02*
X151638095Y-71452380D01*
X151638095Y-71928571D02*
X152209523Y-71928571D01*
X152209523Y-72452380D02*
X152209523Y-71452380D01*
X153114285Y-71785714D02*
X153114285Y-72452380D01*
X152876190Y-71404761D02*
X152638095Y-72119047D01*
X153257142Y-72119047D01*
%TO.C,H3*%
X151638095Y-104202380D02*
X151638095Y-103202380D01*
X151638095Y-103678571D02*
X152209523Y-103678571D01*
X152209523Y-104202380D02*
X152209523Y-103202380D01*
X152590476Y-103202380D02*
X153209523Y-103202380D01*
X152876190Y-103583333D01*
X153019047Y-103583333D01*
X153114285Y-103630952D01*
X153161904Y-103678571D01*
X153209523Y-103773809D01*
X153209523Y-104011904D01*
X153161904Y-104107142D01*
X153114285Y-104154761D01*
X153019047Y-104202380D01*
X152733333Y-104202380D01*
X152638095Y-104154761D01*
X152590476Y-104107142D01*
%TO.C,H2*%
X114808095Y-72452380D02*
X114808095Y-71452380D01*
X114808095Y-71928571D02*
X115379523Y-71928571D01*
X115379523Y-72452380D02*
X115379523Y-71452380D01*
X115808095Y-71547619D02*
X115855714Y-71500000D01*
X115950952Y-71452380D01*
X116189047Y-71452380D01*
X116284285Y-71500000D01*
X116331904Y-71547619D01*
X116379523Y-71642857D01*
X116379523Y-71738095D01*
X116331904Y-71880952D01*
X115760476Y-72452380D01*
X116379523Y-72452380D01*
%TO.C,J10*%
X102060476Y-71842380D02*
X102060476Y-72556666D01*
X102012857Y-72699523D01*
X101917619Y-72794761D01*
X101774761Y-72842380D01*
X101679523Y-72842380D01*
X103060476Y-72842380D02*
X102489047Y-72842380D01*
X102774761Y-72842380D02*
X102774761Y-71842380D01*
X102679523Y-71985238D01*
X102584285Y-72080476D01*
X102489047Y-72128095D01*
X103679523Y-71842380D02*
X103774761Y-71842380D01*
X103870000Y-71890000D01*
X103917619Y-71937619D01*
X103965238Y-72032857D01*
X104012857Y-72223333D01*
X104012857Y-72461428D01*
X103965238Y-72651904D01*
X103917619Y-72747142D01*
X103870000Y-72794761D01*
X103774761Y-72842380D01*
X103679523Y-72842380D01*
X103584285Y-72794761D01*
X103536666Y-72747142D01*
X103489047Y-72651904D01*
X103441428Y-72461428D01*
X103441428Y-72223333D01*
X103489047Y-72032857D01*
X103536666Y-71937619D01*
X103584285Y-71890000D01*
X103679523Y-71842380D01*
%TO.C,U4*%
X141478095Y-87082380D02*
X141478095Y-87891904D01*
X141525714Y-87987142D01*
X141573333Y-88034761D01*
X141668571Y-88082380D01*
X141859047Y-88082380D01*
X141954285Y-88034761D01*
X142001904Y-87987142D01*
X142049523Y-87891904D01*
X142049523Y-87082380D01*
X142954285Y-87415714D02*
X142954285Y-88082380D01*
X142716190Y-87034761D02*
X142478095Y-87749047D01*
X143097142Y-87749047D01*
%TO.C,U3*%
X127522380Y-109981904D02*
X128331904Y-109981904D01*
X128427142Y-109934285D01*
X128474761Y-109886666D01*
X128522380Y-109791428D01*
X128522380Y-109600952D01*
X128474761Y-109505714D01*
X128427142Y-109458095D01*
X128331904Y-109410476D01*
X127522380Y-109410476D01*
X127522380Y-109029523D02*
X127522380Y-108410476D01*
X127903333Y-108743809D01*
X127903333Y-108600952D01*
X127950952Y-108505714D01*
X127998571Y-108458095D01*
X128093809Y-108410476D01*
X128331904Y-108410476D01*
X128427142Y-108458095D01*
X128474761Y-108505714D01*
X128522380Y-108600952D01*
X128522380Y-108886666D01*
X128474761Y-108981904D01*
X128427142Y-109029523D01*
%TO.C,U2*%
X128778095Y-98512380D02*
X128778095Y-99321904D01*
X128825714Y-99417142D01*
X128873333Y-99464761D01*
X128968571Y-99512380D01*
X129159047Y-99512380D01*
X129254285Y-99464761D01*
X129301904Y-99417142D01*
X129349523Y-99321904D01*
X129349523Y-98512380D01*
X129778095Y-98607619D02*
X129825714Y-98560000D01*
X129920952Y-98512380D01*
X130159047Y-98512380D01*
X130254285Y-98560000D01*
X130301904Y-98607619D01*
X130349523Y-98702857D01*
X130349523Y-98798095D01*
X130301904Y-98940952D01*
X129730476Y-99512380D01*
X130349523Y-99512380D01*
X112584666Y-92840000D02*
X111884666Y-92840000D01*
X111884666Y-92673333D01*
X111918000Y-92573333D01*
X111984666Y-92506666D01*
X112051333Y-92473333D01*
X112184666Y-92440000D01*
X112284666Y-92440000D01*
X112418000Y-92473333D01*
X112484666Y-92506666D01*
X112551333Y-92573333D01*
X112584666Y-92673333D01*
X112584666Y-92840000D01*
X111884666Y-92240000D02*
X112584666Y-92006666D01*
X111884666Y-91773333D01*
X112584666Y-91206666D02*
X112584666Y-91540000D01*
X111884666Y-91540000D01*
X111884666Y-90673333D02*
X111884666Y-90806666D01*
X111918000Y-90873333D01*
X111951333Y-90906666D01*
X112051333Y-90973333D01*
X112184666Y-91006666D01*
X112451333Y-91006666D01*
X112518000Y-90973333D01*
X112551333Y-90940000D01*
X112584666Y-90873333D01*
X112584666Y-90740000D01*
X112551333Y-90673333D01*
X112518000Y-90640000D01*
X112451333Y-90606666D01*
X112284666Y-90606666D01*
X112218000Y-90640000D01*
X112184666Y-90673333D01*
X112151333Y-90740000D01*
X112151333Y-90873333D01*
X112184666Y-90940000D01*
X112218000Y-90973333D01*
X112284666Y-91006666D01*
X112384666Y-90340000D02*
X112384666Y-90006666D01*
X112584666Y-90406666D02*
X111884666Y-90173333D01*
X112584666Y-89940000D01*
X111060666Y-94523333D02*
X110360666Y-94523333D01*
X110860666Y-94290000D01*
X110360666Y-94056666D01*
X111060666Y-94056666D01*
X111060666Y-93723333D02*
X110360666Y-93723333D01*
X111060666Y-93390000D02*
X110360666Y-93390000D01*
X110860666Y-93156666D01*
X110360666Y-92923333D01*
X111060666Y-92923333D01*
X110360666Y-92656666D02*
X111060666Y-92190000D01*
X110360666Y-92190000D02*
X111060666Y-92656666D01*
X111060666Y-91523333D02*
X110727333Y-91756666D01*
X111060666Y-91923333D02*
X110360666Y-91923333D01*
X110360666Y-91656666D01*
X110394000Y-91590000D01*
X110427333Y-91556666D01*
X110494000Y-91523333D01*
X110594000Y-91523333D01*
X110660666Y-91556666D01*
X110694000Y-91590000D01*
X110727333Y-91656666D01*
X110727333Y-91923333D01*
X110360666Y-91323333D02*
X110360666Y-90923333D01*
X111060666Y-91123333D02*
X110360666Y-91123333D01*
X111060666Y-90323333D02*
X111060666Y-90723333D01*
X111060666Y-90523333D02*
X110360666Y-90523333D01*
X110460666Y-90590000D01*
X110527333Y-90656666D01*
X110560666Y-90723333D01*
X110360666Y-89890000D02*
X110360666Y-89823333D01*
X110394000Y-89756666D01*
X110427333Y-89723333D01*
X110494000Y-89690000D01*
X110627333Y-89656666D01*
X110794000Y-89656666D01*
X110927333Y-89690000D01*
X110994000Y-89723333D01*
X111027333Y-89756666D01*
X111060666Y-89823333D01*
X111060666Y-89890000D01*
X111027333Y-89956666D01*
X110994000Y-89990000D01*
X110927333Y-90023333D01*
X110794000Y-90056666D01*
X110627333Y-90056666D01*
X110494000Y-90023333D01*
X110427333Y-89990000D01*
X110394000Y-89956666D01*
X110360666Y-89890000D01*
X110360666Y-89056666D02*
X110360666Y-89190000D01*
X110394000Y-89256666D01*
X110427333Y-89290000D01*
X110527333Y-89356666D01*
X110660666Y-89390000D01*
X110927333Y-89390000D01*
X110994000Y-89356666D01*
X111027333Y-89323333D01*
X111060666Y-89256666D01*
X111060666Y-89123333D01*
X111027333Y-89056666D01*
X110994000Y-89023333D01*
X110927333Y-88990000D01*
X110760666Y-88990000D01*
X110694000Y-89023333D01*
X110660666Y-89056666D01*
X110627333Y-89123333D01*
X110627333Y-89256666D01*
X110660666Y-89323333D01*
X110694000Y-89356666D01*
X110760666Y-89390000D01*
X110427333Y-88723333D02*
X110394000Y-88690000D01*
X110360666Y-88623333D01*
X110360666Y-88456666D01*
X110394000Y-88390000D01*
X110427333Y-88356666D01*
X110494000Y-88323333D01*
X110560666Y-88323333D01*
X110660666Y-88356666D01*
X111060666Y-88756666D01*
X111060666Y-88323333D01*
%TO.C,U1*%
X111012380Y-109981904D02*
X111821904Y-109981904D01*
X111917142Y-109934285D01*
X111964761Y-109886666D01*
X112012380Y-109791428D01*
X112012380Y-109600952D01*
X111964761Y-109505714D01*
X111917142Y-109458095D01*
X111821904Y-109410476D01*
X111012380Y-109410476D01*
X112012380Y-108410476D02*
X112012380Y-108981904D01*
X112012380Y-108696190D02*
X111012380Y-108696190D01*
X111155238Y-108791428D01*
X111250476Y-108886666D01*
X111298095Y-108981904D01*
%TO.C,R3*%
X120483333Y-80462380D02*
X120150000Y-79986190D01*
X119911904Y-80462380D02*
X119911904Y-79462380D01*
X120292857Y-79462380D01*
X120388095Y-79510000D01*
X120435714Y-79557619D01*
X120483333Y-79652857D01*
X120483333Y-79795714D01*
X120435714Y-79890952D01*
X120388095Y-79938571D01*
X120292857Y-79986190D01*
X119911904Y-79986190D01*
X120816666Y-79462380D02*
X121435714Y-79462380D01*
X121102380Y-79843333D01*
X121245238Y-79843333D01*
X121340476Y-79890952D01*
X121388095Y-79938571D01*
X121435714Y-80033809D01*
X121435714Y-80271904D01*
X121388095Y-80367142D01*
X121340476Y-80414761D01*
X121245238Y-80462380D01*
X120959523Y-80462380D01*
X120864285Y-80414761D01*
X120816666Y-80367142D01*
%TO.C,R2*%
X120483333Y-76652380D02*
X120150000Y-76176190D01*
X119911904Y-76652380D02*
X119911904Y-75652380D01*
X120292857Y-75652380D01*
X120388095Y-75700000D01*
X120435714Y-75747619D01*
X120483333Y-75842857D01*
X120483333Y-75985714D01*
X120435714Y-76080952D01*
X120388095Y-76128571D01*
X120292857Y-76176190D01*
X119911904Y-76176190D01*
X120864285Y-75747619D02*
X120911904Y-75700000D01*
X121007142Y-75652380D01*
X121245238Y-75652380D01*
X121340476Y-75700000D01*
X121388095Y-75747619D01*
X121435714Y-75842857D01*
X121435714Y-75938095D01*
X121388095Y-76080952D01*
X120816666Y-76652380D01*
X121435714Y-76652380D01*
%TO.C,J11*%
X157940476Y-115112380D02*
X157940476Y-115826666D01*
X157892857Y-115969523D01*
X157797619Y-116064761D01*
X157654761Y-116112380D01*
X157559523Y-116112380D01*
X158940476Y-116112380D02*
X158369047Y-116112380D01*
X158654761Y-116112380D02*
X158654761Y-115112380D01*
X158559523Y-115255238D01*
X158464285Y-115350476D01*
X158369047Y-115398095D01*
X159892857Y-116112380D02*
X159321428Y-116112380D01*
X159607142Y-116112380D02*
X159607142Y-115112380D01*
X159511904Y-115255238D01*
X159416666Y-115350476D01*
X159321428Y-115398095D01*
%TO.C,J9*%
X168576666Y-115112380D02*
X168576666Y-115826666D01*
X168529047Y-115969523D01*
X168433809Y-116064761D01*
X168290952Y-116112380D01*
X168195714Y-116112380D01*
X169100476Y-116112380D02*
X169290952Y-116112380D01*
X169386190Y-116064761D01*
X169433809Y-116017142D01*
X169529047Y-115874285D01*
X169576666Y-115683809D01*
X169576666Y-115302857D01*
X169529047Y-115207619D01*
X169481428Y-115160000D01*
X169386190Y-115112380D01*
X169195714Y-115112380D01*
X169100476Y-115160000D01*
X169052857Y-115207619D01*
X169005238Y-115302857D01*
X169005238Y-115540952D01*
X169052857Y-115636190D01*
X169100476Y-115683809D01*
X169195714Y-115731428D01*
X169386190Y-115731428D01*
X169481428Y-115683809D01*
X169529047Y-115636190D01*
X169576666Y-115540952D01*
%TO.C,J8*%
X148256666Y-115112380D02*
X148256666Y-115826666D01*
X148209047Y-115969523D01*
X148113809Y-116064761D01*
X147970952Y-116112380D01*
X147875714Y-116112380D01*
X148875714Y-115540952D02*
X148780476Y-115493333D01*
X148732857Y-115445714D01*
X148685238Y-115350476D01*
X148685238Y-115302857D01*
X148732857Y-115207619D01*
X148780476Y-115160000D01*
X148875714Y-115112380D01*
X149066190Y-115112380D01*
X149161428Y-115160000D01*
X149209047Y-115207619D01*
X149256666Y-115302857D01*
X149256666Y-115350476D01*
X149209047Y-115445714D01*
X149161428Y-115493333D01*
X149066190Y-115540952D01*
X148875714Y-115540952D01*
X148780476Y-115588571D01*
X148732857Y-115636190D01*
X148685238Y-115731428D01*
X148685238Y-115921904D01*
X148732857Y-116017142D01*
X148780476Y-116064761D01*
X148875714Y-116112380D01*
X149066190Y-116112380D01*
X149161428Y-116064761D01*
X149209047Y-116017142D01*
X149256666Y-115921904D01*
X149256666Y-115731428D01*
X149209047Y-115636190D01*
X149161428Y-115588571D01*
X149066190Y-115540952D01*
%TO.C,J7*%
X138096666Y-115112380D02*
X138096666Y-115826666D01*
X138049047Y-115969523D01*
X137953809Y-116064761D01*
X137810952Y-116112380D01*
X137715714Y-116112380D01*
X138477619Y-115112380D02*
X139144285Y-115112380D01*
X138715714Y-116112380D01*
%TO.C,J6*%
X117776666Y-115112380D02*
X117776666Y-115826666D01*
X117729047Y-115969523D01*
X117633809Y-116064761D01*
X117490952Y-116112380D01*
X117395714Y-116112380D01*
X118681428Y-115112380D02*
X118490952Y-115112380D01*
X118395714Y-115160000D01*
X118348095Y-115207619D01*
X118252857Y-115350476D01*
X118205238Y-115540952D01*
X118205238Y-115921904D01*
X118252857Y-116017142D01*
X118300476Y-116064761D01*
X118395714Y-116112380D01*
X118586190Y-116112380D01*
X118681428Y-116064761D01*
X118729047Y-116017142D01*
X118776666Y-115921904D01*
X118776666Y-115683809D01*
X118729047Y-115588571D01*
X118681428Y-115540952D01*
X118586190Y-115493333D01*
X118395714Y-115493333D01*
X118300476Y-115540952D01*
X118252857Y-115588571D01*
X118205238Y-115683809D01*
%TO.C,J5*%
X127936666Y-115112380D02*
X127936666Y-115826666D01*
X127889047Y-115969523D01*
X127793809Y-116064761D01*
X127650952Y-116112380D01*
X127555714Y-116112380D01*
X128889047Y-115112380D02*
X128412857Y-115112380D01*
X128365238Y-115588571D01*
X128412857Y-115540952D01*
X128508095Y-115493333D01*
X128746190Y-115493333D01*
X128841428Y-115540952D01*
X128889047Y-115588571D01*
X128936666Y-115683809D01*
X128936666Y-115921904D01*
X128889047Y-116017142D01*
X128841428Y-116064761D01*
X128746190Y-116112380D01*
X128508095Y-116112380D01*
X128412857Y-116064761D01*
X128365238Y-116017142D01*
%TO.C,J4*%
X107616666Y-115112380D02*
X107616666Y-115826666D01*
X107569047Y-115969523D01*
X107473809Y-116064761D01*
X107330952Y-116112380D01*
X107235714Y-116112380D01*
X108521428Y-115445714D02*
X108521428Y-116112380D01*
X108283333Y-115064761D02*
X108045238Y-115779047D01*
X108664285Y-115779047D01*
%TO.C,J3*%
X97456666Y-115112380D02*
X97456666Y-115826666D01*
X97409047Y-115969523D01*
X97313809Y-116064761D01*
X97170952Y-116112380D01*
X97075714Y-116112380D01*
X97837619Y-115112380D02*
X98456666Y-115112380D01*
X98123333Y-115493333D01*
X98266190Y-115493333D01*
X98361428Y-115540952D01*
X98409047Y-115588571D01*
X98456666Y-115683809D01*
X98456666Y-115921904D01*
X98409047Y-116017142D01*
X98361428Y-116064761D01*
X98266190Y-116112380D01*
X97980476Y-116112380D01*
X97885238Y-116064761D01*
X97837619Y-116017142D01*
%TO.C,J2*%
X174622380Y-99393333D02*
X175336666Y-99393333D01*
X175479523Y-99440952D01*
X175574761Y-99536190D01*
X175622380Y-99679047D01*
X175622380Y-99774285D01*
X174717619Y-98964761D02*
X174670000Y-98917142D01*
X174622380Y-98821904D01*
X174622380Y-98583809D01*
X174670000Y-98488571D01*
X174717619Y-98440952D01*
X174812857Y-98393333D01*
X174908095Y-98393333D01*
X175050952Y-98440952D01*
X175622380Y-99012380D01*
X175622380Y-98393333D01*
%TO.C,J1*%
X174622380Y-109553333D02*
X175336666Y-109553333D01*
X175479523Y-109600952D01*
X175574761Y-109696190D01*
X175622380Y-109839047D01*
X175622380Y-109934285D01*
X175622380Y-108553333D02*
X175622380Y-109124761D01*
X175622380Y-108839047D02*
X174622380Y-108839047D01*
X174765238Y-108934285D01*
X174860476Y-109029523D01*
X174908095Y-109124761D01*
%TO.C,C6*%
X140803333Y-76557142D02*
X140755714Y-76604761D01*
X140612857Y-76652380D01*
X140517619Y-76652380D01*
X140374761Y-76604761D01*
X140279523Y-76509523D01*
X140231904Y-76414285D01*
X140184285Y-76223809D01*
X140184285Y-76080952D01*
X140231904Y-75890476D01*
X140279523Y-75795238D01*
X140374761Y-75700000D01*
X140517619Y-75652380D01*
X140612857Y-75652380D01*
X140755714Y-75700000D01*
X140803333Y-75747619D01*
X141660476Y-75652380D02*
X141470000Y-75652380D01*
X141374761Y-75700000D01*
X141327142Y-75747619D01*
X141231904Y-75890476D01*
X141184285Y-76080952D01*
X141184285Y-76461904D01*
X141231904Y-76557142D01*
X141279523Y-76604761D01*
X141374761Y-76652380D01*
X141565238Y-76652380D01*
X141660476Y-76604761D01*
X141708095Y-76557142D01*
X141755714Y-76461904D01*
X141755714Y-76223809D01*
X141708095Y-76128571D01*
X141660476Y-76080952D01*
X141565238Y-76033333D01*
X141374761Y-76033333D01*
X141279523Y-76080952D01*
X141231904Y-76128571D01*
X141184285Y-76223809D01*
%TO.C,C5*%
X140803333Y-72747142D02*
X140755714Y-72794761D01*
X140612857Y-72842380D01*
X140517619Y-72842380D01*
X140374761Y-72794761D01*
X140279523Y-72699523D01*
X140231904Y-72604285D01*
X140184285Y-72413809D01*
X140184285Y-72270952D01*
X140231904Y-72080476D01*
X140279523Y-71985238D01*
X140374761Y-71890000D01*
X140517619Y-71842380D01*
X140612857Y-71842380D01*
X140755714Y-71890000D01*
X140803333Y-71937619D01*
X141708095Y-71842380D02*
X141231904Y-71842380D01*
X141184285Y-72318571D01*
X141231904Y-72270952D01*
X141327142Y-72223333D01*
X141565238Y-72223333D01*
X141660476Y-72270952D01*
X141708095Y-72318571D01*
X141755714Y-72413809D01*
X141755714Y-72651904D01*
X141708095Y-72747142D01*
X141660476Y-72794761D01*
X141565238Y-72842380D01*
X141327142Y-72842380D01*
X141231904Y-72794761D01*
X141184285Y-72747142D01*
%TO.C,C4*%
X134453333Y-98147142D02*
X134405714Y-98194761D01*
X134262857Y-98242380D01*
X134167619Y-98242380D01*
X134024761Y-98194761D01*
X133929523Y-98099523D01*
X133881904Y-98004285D01*
X133834285Y-97813809D01*
X133834285Y-97670952D01*
X133881904Y-97480476D01*
X133929523Y-97385238D01*
X134024761Y-97290000D01*
X134167619Y-97242380D01*
X134262857Y-97242380D01*
X134405714Y-97290000D01*
X134453333Y-97337619D01*
X135310476Y-97575714D02*
X135310476Y-98242380D01*
X135072380Y-97194761D02*
X134834285Y-97909047D01*
X135453333Y-97909047D01*
%TO.C,C2*%
X123887142Y-109426666D02*
X123934761Y-109474285D01*
X123982380Y-109617142D01*
X123982380Y-109712380D01*
X123934761Y-109855238D01*
X123839523Y-109950476D01*
X123744285Y-109998095D01*
X123553809Y-110045714D01*
X123410952Y-110045714D01*
X123220476Y-109998095D01*
X123125238Y-109950476D01*
X123030000Y-109855238D01*
X122982380Y-109712380D01*
X122982380Y-109617142D01*
X123030000Y-109474285D01*
X123077619Y-109426666D01*
X123077619Y-109045714D02*
X123030000Y-108998095D01*
X122982380Y-108902857D01*
X122982380Y-108664761D01*
X123030000Y-108569523D01*
X123077619Y-108521904D01*
X123172857Y-108474285D01*
X123268095Y-108474285D01*
X123410952Y-108521904D01*
X123982380Y-109093333D01*
X123982380Y-108474285D01*
%TO.C,C1*%
X107377142Y-109426666D02*
X107424761Y-109474285D01*
X107472380Y-109617142D01*
X107472380Y-109712380D01*
X107424761Y-109855238D01*
X107329523Y-109950476D01*
X107234285Y-109998095D01*
X107043809Y-110045714D01*
X106900952Y-110045714D01*
X106710476Y-109998095D01*
X106615238Y-109950476D01*
X106520000Y-109855238D01*
X106472380Y-109712380D01*
X106472380Y-109617142D01*
X106520000Y-109474285D01*
X106567619Y-109426666D01*
X107472380Y-108474285D02*
X107472380Y-109045714D01*
X107472380Y-108760000D02*
X106472380Y-108760000D01*
X106615238Y-108855238D01*
X106710476Y-108950476D01*
X106758095Y-109045714D01*
%TD*%
M02*
