%TF.GenerationSoftware,KiCad,Pcbnew,(5.1.10)-1*%
%TF.CreationDate,2022-06-29T20:33:17-04:00*%
%TF.ProjectId,RPI4_LEDs,52504934-5f4c-4454-9473-2e6b69636164,rev?*%
%TF.SameCoordinates,Original*%
%TF.FileFunction,Copper,L1,Top*%
%TF.FilePolarity,Positive*%
%FSLAX46Y46*%
G04 Gerber Fmt 4.6, Leading zero omitted, Abs format (unit mm)*
G04 Created by KiCad (PCBNEW (5.1.10)-1) date 2022-06-29 20:33:17*
%MOMM*%
%LPD*%
G01*
G04 APERTURE LIST*
%TA.AperFunction,ComponentPad*%
%ADD10C,1.600000*%
%TD*%
%TA.AperFunction,ComponentPad*%
%ADD11C,2.400000*%
%TD*%
%TA.AperFunction,ComponentPad*%
%ADD12R,2.400000X2.400000*%
%TD*%
%TA.AperFunction,ComponentPad*%
%ADD13O,1.600000X1.600000*%
%TD*%
%TA.AperFunction,ComponentPad*%
%ADD14C,2.600000*%
%TD*%
%TA.AperFunction,ComponentPad*%
%ADD15R,2.600000X2.600000*%
%TD*%
%TA.AperFunction,ComponentPad*%
%ADD16C,0.800000*%
%TD*%
%TA.AperFunction,ComponentPad*%
%ADD17C,6.400000*%
%TD*%
%TA.AperFunction,SMDPad,CuDef*%
%ADD18R,2.800000X2.800000*%
%TD*%
%TA.AperFunction,SMDPad,CuDef*%
%ADD19R,2.600000X2.800000*%
%TD*%
%TA.AperFunction,SMDPad,CuDef*%
%ADD20R,2.200000X2.800000*%
%TD*%
%TA.AperFunction,ComponentPad*%
%ADD21R,1.600000X1.600000*%
%TD*%
%TA.AperFunction,ViaPad*%
%ADD22C,0.800000*%
%TD*%
%TA.AperFunction,Conductor*%
%ADD23C,0.300000*%
%TD*%
%TA.AperFunction,Conductor*%
%ADD24C,0.400000*%
%TD*%
G04 APERTURE END LIST*
D10*
%TO.P,C7,2*%
%TO.N,Net-(C7-Pad2)*%
X133430000Y-80010000D03*
%TO.P,C7,1*%
%TO.N,GNDREF*%
X138430000Y-80010000D03*
%TD*%
D11*
%TO.P,C3,2*%
%TO.N,GNDREF*%
X154940000Y-85170000D03*
D12*
%TO.P,C3,1*%
%TO.N,+5V*%
X154940000Y-90170000D03*
%TD*%
D13*
%TO.P,R1,2*%
%TO.N,/Left*%
X123190000Y-72390000D03*
D10*
%TO.P,R1,1*%
%TO.N,Net-(C5-Pad1)*%
X130810000Y-72390000D03*
%TD*%
D14*
%TO.P,J13,2*%
%TO.N,GNDREF*%
X168910000Y-78740000D03*
D15*
%TO.P,J13,1*%
X168910000Y-73660000D03*
%TD*%
D14*
%TO.P,J12,2*%
%TO.N,+5V*%
X168910000Y-88900000D03*
D15*
%TO.P,J12,1*%
X168910000Y-83820000D03*
%TD*%
D16*
%TO.P,H4,1*%
%TO.N,GNDREF*%
X154097056Y-74502944D03*
X152400000Y-73800000D03*
X150702944Y-74502944D03*
X150000000Y-76200000D03*
X150702944Y-77897056D03*
X152400000Y-78600000D03*
X154097056Y-77897056D03*
X154800000Y-76200000D03*
D17*
X152400000Y-76200000D03*
%TD*%
D16*
%TO.P,H3,1*%
%TO.N,GNDREF*%
X154097056Y-106252944D03*
X152400000Y-105550000D03*
X150702944Y-106252944D03*
X150000000Y-107950000D03*
X150702944Y-109647056D03*
X152400000Y-110350000D03*
X154097056Y-109647056D03*
X154800000Y-107950000D03*
D17*
X152400000Y-107950000D03*
%TD*%
D16*
%TO.P,H2,1*%
%TO.N,GNDREF*%
X117267056Y-74502944D03*
X115570000Y-73800000D03*
X113872944Y-74502944D03*
X113170000Y-76200000D03*
X113872944Y-77897056D03*
X115570000Y-78600000D03*
X117267056Y-77897056D03*
X117970000Y-76200000D03*
D17*
X115570000Y-76200000D03*
%TD*%
D18*
%TO.P,J10,T*%
%TO.N,/Right*%
X103590000Y-79900000D03*
D19*
%TO.P,J10,R2*%
%TO.N,GNDREF*%
X107590000Y-75450000D03*
D20*
%TO.P,J10,S*%
X94190000Y-79900000D03*
%TO.P,J10,R1*%
%TO.N,/Left*%
X96190000Y-72500000D03*
%TD*%
D13*
%TO.P,U4,8*%
%TO.N,Net-(C7-Pad2)*%
X132080000Y-83820000D03*
%TO.P,U4,4*%
%TO.N,/Strobe*%
X139700000Y-91440000D03*
%TO.P,U4,7*%
%TO.N,/Reset_Equalizer*%
X134620000Y-83820000D03*
%TO.P,U4,3*%
%TO.N,/Equalizer_Out*%
X137160000Y-91440000D03*
%TO.P,U4,6*%
%TO.N,Net-(C6-Pad1)*%
X137160000Y-83820000D03*
%TO.P,U4,2*%
%TO.N,GNDREF*%
X134620000Y-91440000D03*
%TO.P,U4,5*%
%TO.N,Net-(C5-Pad2)*%
X139700000Y-83820000D03*
D21*
%TO.P,U4,1*%
%TO.N,+3V3*%
X132080000Y-91440000D03*
%TD*%
%TO.P,U3,14*%
%TO.N,+5V*%
%TA.AperFunction,SMDPad,CuDef*%
G36*
G01*
X129690000Y-107720000D02*
X129390000Y-107720000D01*
G75*
G02*
X129240000Y-107570000I0J150000D01*
G01*
X129240000Y-105920000D01*
G75*
G02*
X129390000Y-105770000I150000J0D01*
G01*
X129690000Y-105770000D01*
G75*
G02*
X129840000Y-105920000I0J-150000D01*
G01*
X129840000Y-107570000D01*
G75*
G02*
X129690000Y-107720000I-150000J0D01*
G01*
G37*
%TD.AperFunction*%
%TO.P,U3,13*%
%TO.N,GNDREF*%
%TA.AperFunction,SMDPad,CuDef*%
G36*
G01*
X130960000Y-107720000D02*
X130660000Y-107720000D01*
G75*
G02*
X130510000Y-107570000I0J150000D01*
G01*
X130510000Y-105920000D01*
G75*
G02*
X130660000Y-105770000I150000J0D01*
G01*
X130960000Y-105770000D01*
G75*
G02*
X131110000Y-105920000I0J-150000D01*
G01*
X131110000Y-107570000D01*
G75*
G02*
X130960000Y-107720000I-150000J0D01*
G01*
G37*
%TD.AperFunction*%
%TO.P,U3,12*%
%TO.N,/LED_7_3V3*%
%TA.AperFunction,SMDPad,CuDef*%
G36*
G01*
X132230000Y-107720000D02*
X131930000Y-107720000D01*
G75*
G02*
X131780000Y-107570000I0J150000D01*
G01*
X131780000Y-105920000D01*
G75*
G02*
X131930000Y-105770000I150000J0D01*
G01*
X132230000Y-105770000D01*
G75*
G02*
X132380000Y-105920000I0J-150000D01*
G01*
X132380000Y-107570000D01*
G75*
G02*
X132230000Y-107720000I-150000J0D01*
G01*
G37*
%TD.AperFunction*%
%TO.P,U3,11*%
%TO.N,/LED_7*%
%TA.AperFunction,SMDPad,CuDef*%
G36*
G01*
X133500000Y-107720000D02*
X133200000Y-107720000D01*
G75*
G02*
X133050000Y-107570000I0J150000D01*
G01*
X133050000Y-105920000D01*
G75*
G02*
X133200000Y-105770000I150000J0D01*
G01*
X133500000Y-105770000D01*
G75*
G02*
X133650000Y-105920000I0J-150000D01*
G01*
X133650000Y-107570000D01*
G75*
G02*
X133500000Y-107720000I-150000J0D01*
G01*
G37*
%TD.AperFunction*%
%TO.P,U3,10*%
%TO.N,GNDREF*%
%TA.AperFunction,SMDPad,CuDef*%
G36*
G01*
X134770000Y-107720000D02*
X134470000Y-107720000D01*
G75*
G02*
X134320000Y-107570000I0J150000D01*
G01*
X134320000Y-105920000D01*
G75*
G02*
X134470000Y-105770000I150000J0D01*
G01*
X134770000Y-105770000D01*
G75*
G02*
X134920000Y-105920000I0J-150000D01*
G01*
X134920000Y-107570000D01*
G75*
G02*
X134770000Y-107720000I-150000J0D01*
G01*
G37*
%TD.AperFunction*%
%TO.P,U3,9*%
%TO.N,/LED_6_3V3*%
%TA.AperFunction,SMDPad,CuDef*%
G36*
G01*
X136040000Y-107720000D02*
X135740000Y-107720000D01*
G75*
G02*
X135590000Y-107570000I0J150000D01*
G01*
X135590000Y-105920000D01*
G75*
G02*
X135740000Y-105770000I150000J0D01*
G01*
X136040000Y-105770000D01*
G75*
G02*
X136190000Y-105920000I0J-150000D01*
G01*
X136190000Y-107570000D01*
G75*
G02*
X136040000Y-107720000I-150000J0D01*
G01*
G37*
%TD.AperFunction*%
%TO.P,U3,8*%
%TO.N,/LED_6*%
%TA.AperFunction,SMDPad,CuDef*%
G36*
G01*
X137310000Y-107720000D02*
X137010000Y-107720000D01*
G75*
G02*
X136860000Y-107570000I0J150000D01*
G01*
X136860000Y-105920000D01*
G75*
G02*
X137010000Y-105770000I150000J0D01*
G01*
X137310000Y-105770000D01*
G75*
G02*
X137460000Y-105920000I0J-150000D01*
G01*
X137460000Y-107570000D01*
G75*
G02*
X137310000Y-107720000I-150000J0D01*
G01*
G37*
%TD.AperFunction*%
%TO.P,U3,7*%
%TO.N,GNDREF*%
%TA.AperFunction,SMDPad,CuDef*%
G36*
G01*
X137310000Y-112670000D02*
X137010000Y-112670000D01*
G75*
G02*
X136860000Y-112520000I0J150000D01*
G01*
X136860000Y-110870000D01*
G75*
G02*
X137010000Y-110720000I150000J0D01*
G01*
X137310000Y-110720000D01*
G75*
G02*
X137460000Y-110870000I0J-150000D01*
G01*
X137460000Y-112520000D01*
G75*
G02*
X137310000Y-112670000I-150000J0D01*
G01*
G37*
%TD.AperFunction*%
%TO.P,U3,6*%
%TO.N,/LED_5*%
%TA.AperFunction,SMDPad,CuDef*%
G36*
G01*
X136040000Y-112670000D02*
X135740000Y-112670000D01*
G75*
G02*
X135590000Y-112520000I0J150000D01*
G01*
X135590000Y-110870000D01*
G75*
G02*
X135740000Y-110720000I150000J0D01*
G01*
X136040000Y-110720000D01*
G75*
G02*
X136190000Y-110870000I0J-150000D01*
G01*
X136190000Y-112520000D01*
G75*
G02*
X136040000Y-112670000I-150000J0D01*
G01*
G37*
%TD.AperFunction*%
%TO.P,U3,5*%
%TO.N,/LED_5_3V3*%
%TA.AperFunction,SMDPad,CuDef*%
G36*
G01*
X134770000Y-112670000D02*
X134470000Y-112670000D01*
G75*
G02*
X134320000Y-112520000I0J150000D01*
G01*
X134320000Y-110870000D01*
G75*
G02*
X134470000Y-110720000I150000J0D01*
G01*
X134770000Y-110720000D01*
G75*
G02*
X134920000Y-110870000I0J-150000D01*
G01*
X134920000Y-112520000D01*
G75*
G02*
X134770000Y-112670000I-150000J0D01*
G01*
G37*
%TD.AperFunction*%
%TO.P,U3,4*%
%TO.N,GNDREF*%
%TA.AperFunction,SMDPad,CuDef*%
G36*
G01*
X133500000Y-112670000D02*
X133200000Y-112670000D01*
G75*
G02*
X133050000Y-112520000I0J150000D01*
G01*
X133050000Y-110870000D01*
G75*
G02*
X133200000Y-110720000I150000J0D01*
G01*
X133500000Y-110720000D01*
G75*
G02*
X133650000Y-110870000I0J-150000D01*
G01*
X133650000Y-112520000D01*
G75*
G02*
X133500000Y-112670000I-150000J0D01*
G01*
G37*
%TD.AperFunction*%
%TO.P,U3,3*%
%TO.N,/LED_4*%
%TA.AperFunction,SMDPad,CuDef*%
G36*
G01*
X132230000Y-112670000D02*
X131930000Y-112670000D01*
G75*
G02*
X131780000Y-112520000I0J150000D01*
G01*
X131780000Y-110870000D01*
G75*
G02*
X131930000Y-110720000I150000J0D01*
G01*
X132230000Y-110720000D01*
G75*
G02*
X132380000Y-110870000I0J-150000D01*
G01*
X132380000Y-112520000D01*
G75*
G02*
X132230000Y-112670000I-150000J0D01*
G01*
G37*
%TD.AperFunction*%
%TO.P,U3,2*%
%TO.N,/LED_4_3V3*%
%TA.AperFunction,SMDPad,CuDef*%
G36*
G01*
X130960000Y-112670000D02*
X130660000Y-112670000D01*
G75*
G02*
X130510000Y-112520000I0J150000D01*
G01*
X130510000Y-110870000D01*
G75*
G02*
X130660000Y-110720000I150000J0D01*
G01*
X130960000Y-110720000D01*
G75*
G02*
X131110000Y-110870000I0J-150000D01*
G01*
X131110000Y-112520000D01*
G75*
G02*
X130960000Y-112670000I-150000J0D01*
G01*
G37*
%TD.AperFunction*%
%TO.P,U3,1*%
%TO.N,GNDREF*%
%TA.AperFunction,SMDPad,CuDef*%
G36*
G01*
X129690000Y-112670000D02*
X129390000Y-112670000D01*
G75*
G02*
X129240000Y-112520000I0J150000D01*
G01*
X129240000Y-110870000D01*
G75*
G02*
X129390000Y-110720000I150000J0D01*
G01*
X129690000Y-110720000D01*
G75*
G02*
X129840000Y-110870000I0J-150000D01*
G01*
X129840000Y-112520000D01*
G75*
G02*
X129690000Y-112670000I-150000J0D01*
G01*
G37*
%TD.AperFunction*%
%TD*%
D10*
%TO.P,U2,44*%
%TO.N,Net-(U2-Pad44)*%
X119380000Y-96520000D03*
%TO.P,U2,43*%
%TO.N,Net-(U2-Pad43)*%
X121920000Y-96520000D03*
%TO.P,U2,42*%
%TO.N,Net-(U2-Pad42)*%
X119380000Y-93980000D03*
%TO.P,U2,41*%
%TO.N,Net-(U2-Pad41)*%
X121920000Y-93980000D03*
%TO.P,U2,40*%
%TO.N,Net-(U2-Pad40)*%
X119380000Y-91440000D03*
%TO.P,U2,39*%
%TO.N,Net-(U2-Pad39)*%
X121920000Y-91440000D03*
%TO.P,U2,38*%
%TO.N,Net-(U2-Pad38)*%
X119380000Y-88900000D03*
%TO.P,U2,37*%
%TO.N,Net-(U2-Pad37)*%
X121920000Y-88900000D03*
%TO.P,U2,36*%
%TO.N,Net-(U2-Pad36)*%
X119380000Y-86360000D03*
%TO.P,U2,35*%
%TO.N,Net-(U2-Pad35)*%
X121920000Y-86360000D03*
%TO.P,U2,1*%
%TO.N,GNDREF*%
X93980000Y-99060000D03*
%TO.P,U2,2*%
%TO.N,Net-(U2-Pad2)*%
X96520000Y-99060000D03*
%TO.P,U2,3*%
%TO.N,Net-(U2-Pad3)*%
X99060000Y-99060000D03*
%TO.P,U2,4*%
%TO.N,/LED_0_3V3*%
X101600000Y-99060000D03*
%TO.P,U2,5*%
%TO.N,/LED_1_3V3*%
X104140000Y-99060000D03*
%TO.P,U2,6*%
%TO.N,/LED_2_3V3*%
X106680000Y-99060000D03*
%TO.P,U2,7*%
%TO.N,/LED_3_3V3*%
X109220000Y-99060000D03*
%TO.P,U2,8*%
%TO.N,/LED_4_3V3*%
X111760000Y-99060000D03*
%TO.P,U2,9*%
%TO.N,/LED_5_3V3*%
X114300000Y-99060000D03*
%TO.P,U2,10*%
%TO.N,/LED_6_3V3*%
X116840000Y-99060000D03*
%TO.P,U2,11*%
%TO.N,/LED_7_3V3*%
X119380000Y-99060000D03*
%TO.P,U2,12*%
%TO.N,/CS*%
X121920000Y-99060000D03*
%TO.P,U2,13*%
%TO.N,/MOSI*%
X124460000Y-99060000D03*
%TO.P,U2,34*%
%TO.N,Net-(U2-Pad34)*%
X96520000Y-86360000D03*
%TO.P,U2,33*%
%TO.N,+5V*%
X93980000Y-83820000D03*
%TO.P,U2,32*%
%TO.N,GNDREF*%
X96520000Y-83820000D03*
%TO.P,U2,31*%
%TO.N,+3V3*%
X99060000Y-83820000D03*
%TO.P,U2,30*%
%TO.N,Net-(U2-Pad30)*%
X101600000Y-83820000D03*
%TO.P,U2,29*%
%TO.N,Net-(U2-Pad29)*%
X104140000Y-83820000D03*
%TO.P,U2,28*%
%TO.N,Net-(U2-Pad28)*%
X106680000Y-83820000D03*
%TO.P,U2,27*%
%TO.N,Net-(U2-Pad27)*%
X109220000Y-83820000D03*
%TO.P,U2,26*%
%TO.N,Net-(U2-Pad26)*%
X111760000Y-83820000D03*
%TO.P,U2,25*%
%TO.N,Net-(U2-Pad25)*%
X114300000Y-83820000D03*
%TO.P,U2,24*%
%TO.N,Net-(U2-Pad24)*%
X116840000Y-83820000D03*
%TO.P,U2,23*%
%TO.N,/Strobe*%
X119380000Y-83820000D03*
%TO.P,U2,22*%
%TO.N,/Reset_Equalizer*%
X121920000Y-83820000D03*
%TO.P,U2,21*%
%TO.N,/Equalizer_Out*%
X124460000Y-83820000D03*
%TO.P,U2,14*%
%TO.N,/MISO*%
X127000000Y-99060000D03*
%TO.P,U2,15*%
%TO.N,Net-(U2-Pad15)*%
X127000000Y-96520000D03*
%TO.P,U2,16*%
%TO.N,Net-(U2-Pad16)*%
X127000000Y-93980000D03*
%TO.P,U2,20*%
%TO.N,/SCK*%
X127000000Y-83820000D03*
%TO.P,U2,19*%
%TO.N,Net-(U2-Pad19)*%
X127000000Y-86360000D03*
%TO.P,U2,18*%
%TO.N,Net-(U2-Pad18)*%
X127000000Y-88900000D03*
%TO.P,U2,17*%
%TO.N,Net-(U2-Pad17)*%
X127000000Y-91440000D03*
%TD*%
%TO.P,U1,14*%
%TO.N,+5V*%
%TA.AperFunction,SMDPad,CuDef*%
G36*
G01*
X113180000Y-107720000D02*
X112880000Y-107720000D01*
G75*
G02*
X112730000Y-107570000I0J150000D01*
G01*
X112730000Y-105920000D01*
G75*
G02*
X112880000Y-105770000I150000J0D01*
G01*
X113180000Y-105770000D01*
G75*
G02*
X113330000Y-105920000I0J-150000D01*
G01*
X113330000Y-107570000D01*
G75*
G02*
X113180000Y-107720000I-150000J0D01*
G01*
G37*
%TD.AperFunction*%
%TO.P,U1,13*%
%TO.N,GNDREF*%
%TA.AperFunction,SMDPad,CuDef*%
G36*
G01*
X114450000Y-107720000D02*
X114150000Y-107720000D01*
G75*
G02*
X114000000Y-107570000I0J150000D01*
G01*
X114000000Y-105920000D01*
G75*
G02*
X114150000Y-105770000I150000J0D01*
G01*
X114450000Y-105770000D01*
G75*
G02*
X114600000Y-105920000I0J-150000D01*
G01*
X114600000Y-107570000D01*
G75*
G02*
X114450000Y-107720000I-150000J0D01*
G01*
G37*
%TD.AperFunction*%
%TO.P,U1,12*%
%TO.N,/LED_3_3V3*%
%TA.AperFunction,SMDPad,CuDef*%
G36*
G01*
X115720000Y-107720000D02*
X115420000Y-107720000D01*
G75*
G02*
X115270000Y-107570000I0J150000D01*
G01*
X115270000Y-105920000D01*
G75*
G02*
X115420000Y-105770000I150000J0D01*
G01*
X115720000Y-105770000D01*
G75*
G02*
X115870000Y-105920000I0J-150000D01*
G01*
X115870000Y-107570000D01*
G75*
G02*
X115720000Y-107720000I-150000J0D01*
G01*
G37*
%TD.AperFunction*%
%TO.P,U1,11*%
%TO.N,/LED_3*%
%TA.AperFunction,SMDPad,CuDef*%
G36*
G01*
X116990000Y-107720000D02*
X116690000Y-107720000D01*
G75*
G02*
X116540000Y-107570000I0J150000D01*
G01*
X116540000Y-105920000D01*
G75*
G02*
X116690000Y-105770000I150000J0D01*
G01*
X116990000Y-105770000D01*
G75*
G02*
X117140000Y-105920000I0J-150000D01*
G01*
X117140000Y-107570000D01*
G75*
G02*
X116990000Y-107720000I-150000J0D01*
G01*
G37*
%TD.AperFunction*%
%TO.P,U1,10*%
%TO.N,GNDREF*%
%TA.AperFunction,SMDPad,CuDef*%
G36*
G01*
X118260000Y-107720000D02*
X117960000Y-107720000D01*
G75*
G02*
X117810000Y-107570000I0J150000D01*
G01*
X117810000Y-105920000D01*
G75*
G02*
X117960000Y-105770000I150000J0D01*
G01*
X118260000Y-105770000D01*
G75*
G02*
X118410000Y-105920000I0J-150000D01*
G01*
X118410000Y-107570000D01*
G75*
G02*
X118260000Y-107720000I-150000J0D01*
G01*
G37*
%TD.AperFunction*%
%TO.P,U1,9*%
%TO.N,/LED_2_3V3*%
%TA.AperFunction,SMDPad,CuDef*%
G36*
G01*
X119530000Y-107720000D02*
X119230000Y-107720000D01*
G75*
G02*
X119080000Y-107570000I0J150000D01*
G01*
X119080000Y-105920000D01*
G75*
G02*
X119230000Y-105770000I150000J0D01*
G01*
X119530000Y-105770000D01*
G75*
G02*
X119680000Y-105920000I0J-150000D01*
G01*
X119680000Y-107570000D01*
G75*
G02*
X119530000Y-107720000I-150000J0D01*
G01*
G37*
%TD.AperFunction*%
%TO.P,U1,8*%
%TO.N,/LED_2*%
%TA.AperFunction,SMDPad,CuDef*%
G36*
G01*
X120800000Y-107720000D02*
X120500000Y-107720000D01*
G75*
G02*
X120350000Y-107570000I0J150000D01*
G01*
X120350000Y-105920000D01*
G75*
G02*
X120500000Y-105770000I150000J0D01*
G01*
X120800000Y-105770000D01*
G75*
G02*
X120950000Y-105920000I0J-150000D01*
G01*
X120950000Y-107570000D01*
G75*
G02*
X120800000Y-107720000I-150000J0D01*
G01*
G37*
%TD.AperFunction*%
%TO.P,U1,7*%
%TO.N,GNDREF*%
%TA.AperFunction,SMDPad,CuDef*%
G36*
G01*
X120800000Y-112670000D02*
X120500000Y-112670000D01*
G75*
G02*
X120350000Y-112520000I0J150000D01*
G01*
X120350000Y-110870000D01*
G75*
G02*
X120500000Y-110720000I150000J0D01*
G01*
X120800000Y-110720000D01*
G75*
G02*
X120950000Y-110870000I0J-150000D01*
G01*
X120950000Y-112520000D01*
G75*
G02*
X120800000Y-112670000I-150000J0D01*
G01*
G37*
%TD.AperFunction*%
%TO.P,U1,6*%
%TO.N,/LED_1*%
%TA.AperFunction,SMDPad,CuDef*%
G36*
G01*
X119530000Y-112670000D02*
X119230000Y-112670000D01*
G75*
G02*
X119080000Y-112520000I0J150000D01*
G01*
X119080000Y-110870000D01*
G75*
G02*
X119230000Y-110720000I150000J0D01*
G01*
X119530000Y-110720000D01*
G75*
G02*
X119680000Y-110870000I0J-150000D01*
G01*
X119680000Y-112520000D01*
G75*
G02*
X119530000Y-112670000I-150000J0D01*
G01*
G37*
%TD.AperFunction*%
%TO.P,U1,5*%
%TO.N,/LED_1_3V3*%
%TA.AperFunction,SMDPad,CuDef*%
G36*
G01*
X118260000Y-112670000D02*
X117960000Y-112670000D01*
G75*
G02*
X117810000Y-112520000I0J150000D01*
G01*
X117810000Y-110870000D01*
G75*
G02*
X117960000Y-110720000I150000J0D01*
G01*
X118260000Y-110720000D01*
G75*
G02*
X118410000Y-110870000I0J-150000D01*
G01*
X118410000Y-112520000D01*
G75*
G02*
X118260000Y-112670000I-150000J0D01*
G01*
G37*
%TD.AperFunction*%
%TO.P,U1,4*%
%TO.N,GNDREF*%
%TA.AperFunction,SMDPad,CuDef*%
G36*
G01*
X116990000Y-112670000D02*
X116690000Y-112670000D01*
G75*
G02*
X116540000Y-112520000I0J150000D01*
G01*
X116540000Y-110870000D01*
G75*
G02*
X116690000Y-110720000I150000J0D01*
G01*
X116990000Y-110720000D01*
G75*
G02*
X117140000Y-110870000I0J-150000D01*
G01*
X117140000Y-112520000D01*
G75*
G02*
X116990000Y-112670000I-150000J0D01*
G01*
G37*
%TD.AperFunction*%
%TO.P,U1,3*%
%TO.N,/LED_0*%
%TA.AperFunction,SMDPad,CuDef*%
G36*
G01*
X115720000Y-112670000D02*
X115420000Y-112670000D01*
G75*
G02*
X115270000Y-112520000I0J150000D01*
G01*
X115270000Y-110870000D01*
G75*
G02*
X115420000Y-110720000I150000J0D01*
G01*
X115720000Y-110720000D01*
G75*
G02*
X115870000Y-110870000I0J-150000D01*
G01*
X115870000Y-112520000D01*
G75*
G02*
X115720000Y-112670000I-150000J0D01*
G01*
G37*
%TD.AperFunction*%
%TO.P,U1,2*%
%TO.N,/LED_0_3V3*%
%TA.AperFunction,SMDPad,CuDef*%
G36*
G01*
X114450000Y-112670000D02*
X114150000Y-112670000D01*
G75*
G02*
X114000000Y-112520000I0J150000D01*
G01*
X114000000Y-110870000D01*
G75*
G02*
X114150000Y-110720000I150000J0D01*
G01*
X114450000Y-110720000D01*
G75*
G02*
X114600000Y-110870000I0J-150000D01*
G01*
X114600000Y-112520000D01*
G75*
G02*
X114450000Y-112670000I-150000J0D01*
G01*
G37*
%TD.AperFunction*%
%TO.P,U1,1*%
%TO.N,GNDREF*%
%TA.AperFunction,SMDPad,CuDef*%
G36*
G01*
X113180000Y-112670000D02*
X112880000Y-112670000D01*
G75*
G02*
X112730000Y-112520000I0J150000D01*
G01*
X112730000Y-110870000D01*
G75*
G02*
X112880000Y-110720000I150000J0D01*
G01*
X113180000Y-110720000D01*
G75*
G02*
X113330000Y-110870000I0J-150000D01*
G01*
X113330000Y-112520000D01*
G75*
G02*
X113180000Y-112670000I-150000J0D01*
G01*
G37*
%TD.AperFunction*%
%TD*%
D13*
%TO.P,R3,2*%
%TO.N,+3V3*%
X123190000Y-80010000D03*
D10*
%TO.P,R3,1*%
%TO.N,Net-(C7-Pad2)*%
X130810000Y-80010000D03*
%TD*%
D13*
%TO.P,R2,2*%
%TO.N,/Right*%
X123190000Y-76200000D03*
D10*
%TO.P,R2,1*%
%TO.N,Net-(C5-Pad1)*%
X130810000Y-76200000D03*
%TD*%
D14*
%TO.P,J11,2*%
%TO.N,/LED_7*%
X161290000Y-121920000D03*
D15*
%TO.P,J11,1*%
%TO.N,GNDREF*%
X156210000Y-121920000D03*
%TD*%
D14*
%TO.P,J9,2*%
%TO.N,/LED_6*%
X171450000Y-121920000D03*
D15*
%TO.P,J9,1*%
%TO.N,GNDREF*%
X166370000Y-121920000D03*
%TD*%
D14*
%TO.P,J8,2*%
%TO.N,/LED_5*%
X151130000Y-121920000D03*
D15*
%TO.P,J8,1*%
%TO.N,GNDREF*%
X146050000Y-121920000D03*
%TD*%
D14*
%TO.P,J7,2*%
%TO.N,/LED_4*%
X140970000Y-121920000D03*
D15*
%TO.P,J7,1*%
%TO.N,GNDREF*%
X135890000Y-121920000D03*
%TD*%
D14*
%TO.P,J6,2*%
%TO.N,/LED_3*%
X120650000Y-121920000D03*
D15*
%TO.P,J6,1*%
%TO.N,GNDREF*%
X115570000Y-121920000D03*
%TD*%
D14*
%TO.P,J5,2*%
%TO.N,/LED_2*%
X130810000Y-121920000D03*
D15*
%TO.P,J5,1*%
%TO.N,GNDREF*%
X125730000Y-121920000D03*
%TD*%
D14*
%TO.P,J4,2*%
%TO.N,/LED_1*%
X110490000Y-121920000D03*
D15*
%TO.P,J4,1*%
%TO.N,GNDREF*%
X105410000Y-121920000D03*
%TD*%
D14*
%TO.P,J3,2*%
%TO.N,/LED_0*%
X100330000Y-121920000D03*
D15*
%TO.P,J3,1*%
%TO.N,GNDREF*%
X95250000Y-121920000D03*
%TD*%
D14*
%TO.P,J2,2*%
%TO.N,/MISO*%
X168910000Y-101600000D03*
D15*
%TO.P,J2,1*%
%TO.N,/SCK*%
X168910000Y-96520000D03*
%TD*%
D14*
%TO.P,J1,2*%
%TO.N,/CS*%
X168910000Y-111760000D03*
D15*
%TO.P,J1,1*%
%TO.N,/MOSI*%
X168910000Y-106680000D03*
%TD*%
D10*
%TO.P,C6,2*%
%TO.N,GNDREF*%
X138350000Y-76200000D03*
%TO.P,C6,1*%
%TO.N,Net-(C6-Pad1)*%
X133350000Y-76200000D03*
%TD*%
%TO.P,C5,2*%
%TO.N,Net-(C5-Pad2)*%
X138350000Y-72390000D03*
%TO.P,C5,1*%
%TO.N,Net-(C5-Pad1)*%
X133350000Y-72390000D03*
%TD*%
%TO.P,C4,2*%
%TO.N,+3V3*%
X132160000Y-95250000D03*
%TO.P,C4,1*%
%TO.N,GNDREF*%
X137160000Y-95250000D03*
%TD*%
%TO.P,C2,2*%
%TO.N,+5V*%
X125730000Y-106760000D03*
%TO.P,C2,1*%
%TO.N,GNDREF*%
X125730000Y-111760000D03*
%TD*%
%TO.P,C1,2*%
%TO.N,+5V*%
X109220000Y-106760000D03*
%TO.P,C1,1*%
%TO.N,GNDREF*%
X109220000Y-111760000D03*
%TD*%
D22*
%TO.N,+5V*%
X111760000Y-102870000D03*
X127000000Y-105410000D03*
%TO.N,GNDREF*%
X128270000Y-114300000D03*
X132080000Y-114300000D03*
X135890000Y-114300000D03*
X119380000Y-114300000D03*
X115570000Y-114300000D03*
X111760000Y-113030000D03*
X114300000Y-104140000D03*
X118110000Y-104140000D03*
X128270000Y-105410000D03*
X134620000Y-109220000D03*
X143510000Y-105410000D03*
X143510000Y-102870000D03*
%TO.N,/LED_6_3V3*%
X134620000Y-104140000D03*
X127000000Y-104140000D03*
%TD*%
D23*
%TO.N,+5V*%
X113030000Y-105475000D02*
X113030000Y-104140000D01*
X113030000Y-104140000D02*
X111760000Y-102870000D01*
X111760000Y-102870000D02*
X111760000Y-102870000D01*
X113030000Y-105475000D02*
X113030000Y-106745000D01*
X129540000Y-106745000D02*
X128335000Y-106745000D01*
X128335000Y-106745000D02*
X127000000Y-105410000D01*
X127000000Y-105410000D02*
X127000000Y-105410000D01*
%TO.N,GNDREF*%
X93980000Y-99060000D02*
X93980000Y-86360000D01*
X93980000Y-86360000D02*
X96520000Y-83820000D01*
X96520000Y-82230000D02*
X94190000Y-79900000D01*
X96520000Y-83820000D02*
X96520000Y-82230000D01*
X96520000Y-82230000D02*
X96520000Y-77470000D01*
X96520000Y-77470000D02*
X100330000Y-73660000D01*
X105800000Y-73660000D02*
X107590000Y-75450000D01*
X100330000Y-73660000D02*
X105800000Y-73660000D01*
X115050000Y-75450000D02*
X115570000Y-74930000D01*
X107590000Y-75450000D02*
X115050000Y-75450000D01*
X129540000Y-111695000D02*
X129540000Y-113030000D01*
X129540000Y-113030000D02*
X128270000Y-114300000D01*
X137160000Y-111695000D02*
X137160000Y-113030000D01*
X137160000Y-113030000D02*
X135890000Y-114300000D01*
X133350000Y-111695000D02*
X133350000Y-113030000D01*
X133350000Y-113030000D02*
X132080000Y-114300000D01*
X128270000Y-114300000D02*
X128270000Y-114300000D01*
X132080000Y-114300000D02*
X132080000Y-114300000D01*
X135890000Y-114300000D02*
X135890000Y-114300000D01*
X113030000Y-111695000D02*
X111760000Y-112965000D01*
X111760000Y-112965000D02*
X111760000Y-113030000D01*
X116840000Y-111695000D02*
X116840000Y-113030000D01*
X116840000Y-113030000D02*
X115570000Y-114300000D01*
X120650000Y-111695000D02*
X120650000Y-113030000D01*
X120650000Y-113030000D02*
X119380000Y-114300000D01*
X119380000Y-114300000D02*
X119380000Y-114300000D01*
X115570000Y-114300000D02*
X115570000Y-114300000D01*
X111760000Y-113030000D02*
X111760000Y-113030000D01*
X114300000Y-106745000D02*
X114300000Y-104140000D01*
X118110000Y-106745000D02*
X118110000Y-104140000D01*
X114300000Y-104140000D02*
X114300000Y-104140000D01*
X118110000Y-104140000D02*
X118110000Y-104140000D01*
X130810000Y-105770000D02*
X130450000Y-105410000D01*
X130810000Y-106745000D02*
X130810000Y-105770000D01*
X130450000Y-105410000D02*
X128270000Y-105410000D01*
X128270000Y-105410000D02*
X128270000Y-105410000D01*
X134620000Y-106745000D02*
X134620000Y-107950000D01*
X134620000Y-107950000D02*
X134620000Y-109220000D01*
X134620000Y-109220000D02*
X134620000Y-109220000D01*
X143510000Y-105410000D02*
X143510000Y-102870000D01*
X143510000Y-102870000D02*
X143510000Y-102870000D01*
%TO.N,Net-(C5-Pad2)*%
X138350000Y-72390000D02*
X140890000Y-74930000D01*
X140890000Y-82630000D02*
X139700000Y-83820000D01*
X140890000Y-74930000D02*
X140890000Y-82630000D01*
%TO.N,Net-(C5-Pad1)*%
X133350000Y-72390000D02*
X130810000Y-72390000D01*
X130810000Y-76200000D02*
X130810000Y-72390000D01*
%TO.N,Net-(C6-Pad1)*%
X135890000Y-82550000D02*
X137160000Y-83820000D01*
X135890000Y-78740000D02*
X135890000Y-82550000D01*
X133350000Y-76200000D02*
X135890000Y-78740000D01*
%TO.N,/CS*%
X124460000Y-101600000D02*
X121920000Y-99060000D01*
X158750000Y-101600000D02*
X124460000Y-101600000D01*
X168910000Y-111760000D02*
X158750000Y-101600000D01*
%TO.N,/MOSI*%
X162560000Y-100330000D02*
X168910000Y-106680000D01*
X125730000Y-100330000D02*
X162560000Y-100330000D01*
X124460000Y-99060000D02*
X125730000Y-100330000D01*
%TO.N,/MISO*%
X166370000Y-99060000D02*
X168910000Y-101600000D01*
X127000000Y-99060000D02*
X166370000Y-99060000D01*
%TO.N,/SCK*%
X127000000Y-83820000D02*
X128270000Y-83820000D01*
X128270000Y-83820000D02*
X132080000Y-87630000D01*
X160020000Y-87630000D02*
X168910000Y-96520000D01*
X132080000Y-87630000D02*
X160020000Y-87630000D01*
%TO.N,/LED_0*%
X100330000Y-121920000D02*
X107950000Y-114300000D01*
X111760000Y-114300000D02*
X114300000Y-114300000D01*
X107950000Y-114300000D02*
X111760000Y-114300000D01*
X111760000Y-114300000D02*
X112670000Y-114300000D01*
X115570000Y-113030000D02*
X115570000Y-111695000D01*
X114300000Y-114300000D02*
X115570000Y-113030000D01*
%TO.N,/LED_1*%
X119380000Y-113030000D02*
X119380000Y-111695000D01*
X110490000Y-121920000D02*
X119380000Y-113030000D01*
%TO.N,/LED_2*%
X130810000Y-119380000D02*
X130810000Y-121920000D01*
X130810000Y-119380000D02*
X123190000Y-111760000D01*
X123190000Y-109285000D02*
X120650000Y-106745000D01*
X123190000Y-111760000D02*
X123190000Y-109285000D01*
%TO.N,/LED_3*%
X116840000Y-107157124D02*
X116840000Y-106680000D01*
X116840000Y-109220000D02*
X116840000Y-106745000D01*
X121007114Y-110369990D02*
X117989990Y-110369990D01*
X121920000Y-111282876D02*
X121007114Y-110369990D01*
X121920000Y-120650000D02*
X121920000Y-111282876D01*
X117989990Y-110369990D02*
X116840000Y-109220000D01*
X120650000Y-121920000D02*
X121920000Y-120650000D01*
%TO.N,/LED_4*%
X132080000Y-112670000D02*
X130810000Y-113940000D01*
X132080000Y-111695000D02*
X132080000Y-112670000D01*
X130810000Y-113940000D02*
X130810000Y-115570000D01*
X130810000Y-115570000D02*
X132080000Y-116840000D01*
X132080000Y-116840000D02*
X135890000Y-116840000D01*
X135890000Y-116840000D02*
X140970000Y-121920000D01*
%TO.N,/LED_5*%
X135890000Y-111695000D02*
X135890000Y-113030000D01*
X135890000Y-113030000D02*
X134620000Y-114300000D01*
X134620000Y-114300000D02*
X134620000Y-115570000D01*
X135389990Y-116339990D02*
X145549990Y-116339990D01*
X134620000Y-115570000D02*
X135389990Y-116339990D01*
X145549990Y-116339990D02*
X146050000Y-116840000D01*
X151130000Y-121920000D02*
X146050000Y-116840000D01*
%TO.N,/LED_6*%
X143445000Y-113030000D02*
X137160000Y-106745000D01*
X162560000Y-113030000D02*
X143445000Y-113030000D01*
X171450000Y-121920000D02*
X162560000Y-113030000D01*
%TO.N,/Right*%
X103700000Y-80010000D02*
X103590000Y-79900000D01*
X119380000Y-80010000D02*
X103700000Y-80010000D01*
X123190000Y-76200000D02*
X119380000Y-80010000D01*
%TO.N,/LED_7*%
X133350000Y-109060002D02*
X133350000Y-106745000D01*
X134659988Y-110369990D02*
X133350000Y-109060002D01*
X137517114Y-110369990D02*
X134659988Y-110369990D01*
X141447124Y-114300000D02*
X137517114Y-110369990D01*
X153670000Y-114300000D02*
X141447124Y-114300000D01*
X161290000Y-121920000D02*
X153670000Y-114300000D01*
D24*
%TO.N,/Left*%
X123080000Y-72500000D02*
X123190000Y-72390000D01*
D23*
X96300000Y-72390000D02*
X96190000Y-72500000D01*
X123190000Y-72390000D02*
X96300000Y-72390000D01*
%TO.N,Net-(C7-Pad2)*%
X130810000Y-80010000D02*
X132080000Y-81280000D01*
X132080000Y-81280000D02*
X132080000Y-83820000D01*
%TO.N,/LED_3_3V3*%
X109220000Y-99060000D02*
X113030000Y-102870000D01*
X113030000Y-102870000D02*
X114300000Y-102870000D01*
X114300000Y-102870000D02*
X115570000Y-104140000D01*
X115570000Y-104140000D02*
X115570000Y-106745000D01*
%TO.N,/LED_2_3V3*%
X106680000Y-99060000D02*
X107950000Y-97790000D01*
X110490000Y-99492002D02*
X112597998Y-101600000D01*
X110490000Y-98627998D02*
X110490000Y-99492002D01*
X109652002Y-97790000D02*
X110490000Y-98627998D01*
X107950000Y-97790000D02*
X109652002Y-97790000D01*
X113737120Y-101600000D02*
X115527119Y-103389999D01*
X112597998Y-101600000D02*
X113737120Y-101600000D01*
X119380000Y-104299998D02*
X119380000Y-106745000D01*
X118470001Y-103389999D02*
X119380000Y-104299998D01*
X115527119Y-103389999D02*
X118470001Y-103389999D01*
%TO.N,/LED_1_3V3*%
X104140000Y-99060000D02*
X110490000Y-105410000D01*
X110490000Y-105410000D02*
X110490000Y-107950000D01*
X118110000Y-111197120D02*
X118110000Y-111695000D01*
X116782860Y-109869980D02*
X118110000Y-111197120D01*
X112409980Y-109869980D02*
X116782860Y-109869980D01*
X110490000Y-107950000D02*
X112409980Y-109869980D01*
%TO.N,/LED_0_3V3*%
X113949990Y-110369990D02*
X109340010Y-110369990D01*
X114300000Y-110720000D02*
X113949990Y-110369990D01*
X114300000Y-111695000D02*
X114300000Y-110720000D01*
X101600000Y-102629980D02*
X101600000Y-99060000D01*
X109340010Y-110369990D02*
X101600000Y-102629980D01*
%TO.N,/LED_4_3V3*%
X130459990Y-110369990D02*
X130810000Y-110720000D01*
X126157112Y-110369990D02*
X130459990Y-110369990D01*
X130810000Y-110720000D02*
X130810000Y-111695000D01*
X118657122Y-102870000D02*
X126157112Y-110369990D01*
X116840000Y-102870000D02*
X118657122Y-102870000D01*
X114180001Y-100210001D02*
X116840000Y-102870000D01*
X112910001Y-100210001D02*
X114180001Y-100210001D01*
X111760000Y-99060000D02*
X112910001Y-100210001D01*
%TO.N,/LED_5_3V3*%
X114300000Y-99060000D02*
X117609990Y-102369990D01*
X117609990Y-102369990D02*
X118879990Y-102369990D01*
X118879990Y-102369990D02*
X125730000Y-109220000D01*
X134620000Y-111037122D02*
X134620000Y-111695000D01*
X132802878Y-109220000D02*
X134620000Y-111037122D01*
X125730000Y-109220000D02*
X132802878Y-109220000D01*
%TO.N,/LED_6_3V3*%
X135890000Y-106745000D02*
X135890000Y-105410000D01*
X135890000Y-105410000D02*
X134620000Y-104140000D01*
X134620000Y-104140000D02*
X134620000Y-104140000D01*
X116840000Y-99622880D02*
X116840000Y-99060000D01*
X121357120Y-104140000D02*
X116840000Y-99622880D01*
X127000000Y-104140000D02*
X121357120Y-104140000D01*
%TO.N,/LED_7_3V3*%
X119380000Y-99060000D02*
X123190000Y-102870000D01*
X132080000Y-105770000D02*
X132080000Y-106745000D01*
X129180000Y-102870000D02*
X132080000Y-105770000D01*
X123190000Y-102870000D02*
X129180000Y-102870000D01*
%TO.N,/Strobe*%
X127432002Y-85090000D02*
X120650000Y-85090000D01*
X120650000Y-85090000D02*
X119380000Y-83820000D01*
X131242002Y-88900000D02*
X127432002Y-85090000D01*
X137160000Y-88900000D02*
X131242002Y-88900000D01*
X139700000Y-91440000D02*
X137160000Y-88900000D01*
%TO.N,Net-(C7-Pad2)*%
X132160000Y-81280000D02*
X132080000Y-81280000D01*
X133430000Y-80010000D02*
X132160000Y-81280000D01*
%TD*%
M02*
