M48
; DRILL file {KiCad (5.1.10)-1} date 06/29/22 20:32:20
; FORMAT={-:-/ absolute / metric / decimal}
; #@! TF.CreationDate,2022-06-29T20:32:20-04:00
; #@! TF.GenerationSoftware,Kicad,Pcbnew,(5.1.10)-1
; #@! TF.FileFunction,Plated,1,2,PTH
FMAT,2
METRIC
T1C0.400
T2C0.500
T3C0.800
T4C1.100
T5C1.200
T6C1.300
T7C3.200
%
G90
G05
T1
X111.76Y-102.87
X111.76Y-113.03
X114.3Y-104.14
X115.57Y-114.3
X118.11Y-104.14
X119.38Y-114.3
X127.0Y-104.14
X127.0Y-105.41
X128.27Y-105.41
X128.27Y-114.3
X132.08Y-114.3
X134.62Y-104.14
X134.62Y-109.22
X135.89Y-114.3
X143.51Y-102.87
X143.51Y-105.41
T2
X113.17Y-76.2
X113.873Y-74.503
X113.873Y-77.897
X115.57Y-73.8
X115.57Y-78.6
X117.267Y-74.503
X117.267Y-77.897
X117.97Y-76.2
X150.0Y-76.2
X150.0Y-107.95
X150.703Y-74.503
X150.703Y-77.897
X150.703Y-106.253
X150.703Y-109.647
X152.4Y-73.8
X152.4Y-78.6
X152.4Y-105.55
X152.4Y-110.35
X154.097Y-74.503
X154.097Y-77.897
X154.097Y-106.253
X154.097Y-109.647
X154.8Y-76.2
X154.8Y-107.95
T3
X109.22Y-106.76
X109.22Y-111.76
X123.19Y-72.39
X123.19Y-76.2
X123.19Y-80.01
X125.73Y-106.76
X125.73Y-111.76
X130.81Y-72.39
X130.81Y-76.2
X130.81Y-80.01
X132.08Y-83.82
X132.08Y-91.44
X132.16Y-95.25
X133.35Y-72.39
X133.35Y-76.2
X133.43Y-80.01
X134.62Y-83.82
X134.62Y-91.44
X137.16Y-83.82
X137.16Y-91.44
X137.16Y-95.25
X138.35Y-72.39
X138.35Y-76.2
X138.43Y-80.01
X139.7Y-83.82
X139.7Y-91.44
T4
X93.98Y-83.82
X93.98Y-99.06
X96.52Y-83.82
X96.52Y-86.36
X96.52Y-99.06
X99.06Y-83.82
X99.06Y-99.06
X101.6Y-83.82
X101.6Y-99.06
X104.14Y-83.82
X104.14Y-99.06
X106.68Y-83.82
X106.68Y-99.06
X109.22Y-83.82
X109.22Y-99.06
X111.76Y-83.82
X111.76Y-99.06
X114.3Y-83.82
X114.3Y-99.06
X116.84Y-83.82
X116.84Y-99.06
X119.38Y-83.82
X119.38Y-86.36
X119.38Y-88.9
X119.38Y-91.44
X119.38Y-93.98
X119.38Y-96.52
X119.38Y-99.06
X121.92Y-83.82
X121.92Y-86.36
X121.92Y-88.9
X121.92Y-91.44
X121.92Y-93.98
X121.92Y-96.52
X121.92Y-99.06
X124.46Y-83.82
X124.46Y-99.06
X127.0Y-83.82
X127.0Y-86.36
X127.0Y-88.9
X127.0Y-91.44
X127.0Y-93.98
X127.0Y-96.52
X127.0Y-99.06
T5
X154.94Y-85.17
X154.94Y-90.17
T6
X95.25Y-121.92
X100.33Y-121.92
X105.41Y-121.92
X110.49Y-121.92
X115.57Y-121.92
X120.65Y-121.92
X125.73Y-121.92
X130.81Y-121.92
X135.89Y-121.92
X140.97Y-121.92
X146.05Y-121.92
X151.13Y-121.92
X156.21Y-121.92
X161.29Y-121.92
X166.37Y-121.92
X168.91Y-73.66
X168.91Y-78.74
X168.91Y-83.82
X168.91Y-88.9
X168.91Y-96.52
X168.91Y-101.6
X168.91Y-106.68
X168.91Y-111.76
X171.45Y-121.92
T7
X115.57Y-76.2
X152.4Y-76.2
X152.4Y-107.95
T0
M30
