%TF.GenerationSoftware,KiCad,Pcbnew,(5.1.10)-1*%
%TF.CreationDate,2022-06-29T20:33:17-04:00*%
%TF.ProjectId,RPI4_LEDs,52504934-5f4c-4454-9473-2e6b69636164,rev?*%
%TF.SameCoordinates,Original*%
%TF.FileFunction,Paste,Top*%
%TF.FilePolarity,Positive*%
%FSLAX46Y46*%
G04 Gerber Fmt 4.6, Leading zero omitted, Abs format (unit mm)*
G04 Created by KiCad (PCBNEW (5.1.10)-1) date 2022-06-29 20:33:17*
%MOMM*%
%LPD*%
G01*
G04 APERTURE LIST*
%ADD10R,2.800000X2.800000*%
%ADD11R,2.600000X2.800000*%
%ADD12R,2.200000X2.800000*%
G04 APERTURE END LIST*
D10*
%TO.C,J10*%
X103590000Y-79900000D03*
D11*
X107590000Y-75450000D03*
D12*
X94190000Y-79900000D03*
X96190000Y-72500000D03*
%TD*%
%TO.C,U3*%
G36*
G01*
X129690000Y-107720000D02*
X129390000Y-107720000D01*
G75*
G02*
X129240000Y-107570000I0J150000D01*
G01*
X129240000Y-105920000D01*
G75*
G02*
X129390000Y-105770000I150000J0D01*
G01*
X129690000Y-105770000D01*
G75*
G02*
X129840000Y-105920000I0J-150000D01*
G01*
X129840000Y-107570000D01*
G75*
G02*
X129690000Y-107720000I-150000J0D01*
G01*
G37*
G36*
G01*
X130960000Y-107720000D02*
X130660000Y-107720000D01*
G75*
G02*
X130510000Y-107570000I0J150000D01*
G01*
X130510000Y-105920000D01*
G75*
G02*
X130660000Y-105770000I150000J0D01*
G01*
X130960000Y-105770000D01*
G75*
G02*
X131110000Y-105920000I0J-150000D01*
G01*
X131110000Y-107570000D01*
G75*
G02*
X130960000Y-107720000I-150000J0D01*
G01*
G37*
G36*
G01*
X132230000Y-107720000D02*
X131930000Y-107720000D01*
G75*
G02*
X131780000Y-107570000I0J150000D01*
G01*
X131780000Y-105920000D01*
G75*
G02*
X131930000Y-105770000I150000J0D01*
G01*
X132230000Y-105770000D01*
G75*
G02*
X132380000Y-105920000I0J-150000D01*
G01*
X132380000Y-107570000D01*
G75*
G02*
X132230000Y-107720000I-150000J0D01*
G01*
G37*
G36*
G01*
X133500000Y-107720000D02*
X133200000Y-107720000D01*
G75*
G02*
X133050000Y-107570000I0J150000D01*
G01*
X133050000Y-105920000D01*
G75*
G02*
X133200000Y-105770000I150000J0D01*
G01*
X133500000Y-105770000D01*
G75*
G02*
X133650000Y-105920000I0J-150000D01*
G01*
X133650000Y-107570000D01*
G75*
G02*
X133500000Y-107720000I-150000J0D01*
G01*
G37*
G36*
G01*
X134770000Y-107720000D02*
X134470000Y-107720000D01*
G75*
G02*
X134320000Y-107570000I0J150000D01*
G01*
X134320000Y-105920000D01*
G75*
G02*
X134470000Y-105770000I150000J0D01*
G01*
X134770000Y-105770000D01*
G75*
G02*
X134920000Y-105920000I0J-150000D01*
G01*
X134920000Y-107570000D01*
G75*
G02*
X134770000Y-107720000I-150000J0D01*
G01*
G37*
G36*
G01*
X136040000Y-107720000D02*
X135740000Y-107720000D01*
G75*
G02*
X135590000Y-107570000I0J150000D01*
G01*
X135590000Y-105920000D01*
G75*
G02*
X135740000Y-105770000I150000J0D01*
G01*
X136040000Y-105770000D01*
G75*
G02*
X136190000Y-105920000I0J-150000D01*
G01*
X136190000Y-107570000D01*
G75*
G02*
X136040000Y-107720000I-150000J0D01*
G01*
G37*
G36*
G01*
X137310000Y-107720000D02*
X137010000Y-107720000D01*
G75*
G02*
X136860000Y-107570000I0J150000D01*
G01*
X136860000Y-105920000D01*
G75*
G02*
X137010000Y-105770000I150000J0D01*
G01*
X137310000Y-105770000D01*
G75*
G02*
X137460000Y-105920000I0J-150000D01*
G01*
X137460000Y-107570000D01*
G75*
G02*
X137310000Y-107720000I-150000J0D01*
G01*
G37*
G36*
G01*
X137310000Y-112670000D02*
X137010000Y-112670000D01*
G75*
G02*
X136860000Y-112520000I0J150000D01*
G01*
X136860000Y-110870000D01*
G75*
G02*
X137010000Y-110720000I150000J0D01*
G01*
X137310000Y-110720000D01*
G75*
G02*
X137460000Y-110870000I0J-150000D01*
G01*
X137460000Y-112520000D01*
G75*
G02*
X137310000Y-112670000I-150000J0D01*
G01*
G37*
G36*
G01*
X136040000Y-112670000D02*
X135740000Y-112670000D01*
G75*
G02*
X135590000Y-112520000I0J150000D01*
G01*
X135590000Y-110870000D01*
G75*
G02*
X135740000Y-110720000I150000J0D01*
G01*
X136040000Y-110720000D01*
G75*
G02*
X136190000Y-110870000I0J-150000D01*
G01*
X136190000Y-112520000D01*
G75*
G02*
X136040000Y-112670000I-150000J0D01*
G01*
G37*
G36*
G01*
X134770000Y-112670000D02*
X134470000Y-112670000D01*
G75*
G02*
X134320000Y-112520000I0J150000D01*
G01*
X134320000Y-110870000D01*
G75*
G02*
X134470000Y-110720000I150000J0D01*
G01*
X134770000Y-110720000D01*
G75*
G02*
X134920000Y-110870000I0J-150000D01*
G01*
X134920000Y-112520000D01*
G75*
G02*
X134770000Y-112670000I-150000J0D01*
G01*
G37*
G36*
G01*
X133500000Y-112670000D02*
X133200000Y-112670000D01*
G75*
G02*
X133050000Y-112520000I0J150000D01*
G01*
X133050000Y-110870000D01*
G75*
G02*
X133200000Y-110720000I150000J0D01*
G01*
X133500000Y-110720000D01*
G75*
G02*
X133650000Y-110870000I0J-150000D01*
G01*
X133650000Y-112520000D01*
G75*
G02*
X133500000Y-112670000I-150000J0D01*
G01*
G37*
G36*
G01*
X132230000Y-112670000D02*
X131930000Y-112670000D01*
G75*
G02*
X131780000Y-112520000I0J150000D01*
G01*
X131780000Y-110870000D01*
G75*
G02*
X131930000Y-110720000I150000J0D01*
G01*
X132230000Y-110720000D01*
G75*
G02*
X132380000Y-110870000I0J-150000D01*
G01*
X132380000Y-112520000D01*
G75*
G02*
X132230000Y-112670000I-150000J0D01*
G01*
G37*
G36*
G01*
X130960000Y-112670000D02*
X130660000Y-112670000D01*
G75*
G02*
X130510000Y-112520000I0J150000D01*
G01*
X130510000Y-110870000D01*
G75*
G02*
X130660000Y-110720000I150000J0D01*
G01*
X130960000Y-110720000D01*
G75*
G02*
X131110000Y-110870000I0J-150000D01*
G01*
X131110000Y-112520000D01*
G75*
G02*
X130960000Y-112670000I-150000J0D01*
G01*
G37*
G36*
G01*
X129690000Y-112670000D02*
X129390000Y-112670000D01*
G75*
G02*
X129240000Y-112520000I0J150000D01*
G01*
X129240000Y-110870000D01*
G75*
G02*
X129390000Y-110720000I150000J0D01*
G01*
X129690000Y-110720000D01*
G75*
G02*
X129840000Y-110870000I0J-150000D01*
G01*
X129840000Y-112520000D01*
G75*
G02*
X129690000Y-112670000I-150000J0D01*
G01*
G37*
%TD*%
%TO.C,U1*%
G36*
G01*
X113180000Y-107720000D02*
X112880000Y-107720000D01*
G75*
G02*
X112730000Y-107570000I0J150000D01*
G01*
X112730000Y-105920000D01*
G75*
G02*
X112880000Y-105770000I150000J0D01*
G01*
X113180000Y-105770000D01*
G75*
G02*
X113330000Y-105920000I0J-150000D01*
G01*
X113330000Y-107570000D01*
G75*
G02*
X113180000Y-107720000I-150000J0D01*
G01*
G37*
G36*
G01*
X114450000Y-107720000D02*
X114150000Y-107720000D01*
G75*
G02*
X114000000Y-107570000I0J150000D01*
G01*
X114000000Y-105920000D01*
G75*
G02*
X114150000Y-105770000I150000J0D01*
G01*
X114450000Y-105770000D01*
G75*
G02*
X114600000Y-105920000I0J-150000D01*
G01*
X114600000Y-107570000D01*
G75*
G02*
X114450000Y-107720000I-150000J0D01*
G01*
G37*
G36*
G01*
X115720000Y-107720000D02*
X115420000Y-107720000D01*
G75*
G02*
X115270000Y-107570000I0J150000D01*
G01*
X115270000Y-105920000D01*
G75*
G02*
X115420000Y-105770000I150000J0D01*
G01*
X115720000Y-105770000D01*
G75*
G02*
X115870000Y-105920000I0J-150000D01*
G01*
X115870000Y-107570000D01*
G75*
G02*
X115720000Y-107720000I-150000J0D01*
G01*
G37*
G36*
G01*
X116990000Y-107720000D02*
X116690000Y-107720000D01*
G75*
G02*
X116540000Y-107570000I0J150000D01*
G01*
X116540000Y-105920000D01*
G75*
G02*
X116690000Y-105770000I150000J0D01*
G01*
X116990000Y-105770000D01*
G75*
G02*
X117140000Y-105920000I0J-150000D01*
G01*
X117140000Y-107570000D01*
G75*
G02*
X116990000Y-107720000I-150000J0D01*
G01*
G37*
G36*
G01*
X118260000Y-107720000D02*
X117960000Y-107720000D01*
G75*
G02*
X117810000Y-107570000I0J150000D01*
G01*
X117810000Y-105920000D01*
G75*
G02*
X117960000Y-105770000I150000J0D01*
G01*
X118260000Y-105770000D01*
G75*
G02*
X118410000Y-105920000I0J-150000D01*
G01*
X118410000Y-107570000D01*
G75*
G02*
X118260000Y-107720000I-150000J0D01*
G01*
G37*
G36*
G01*
X119530000Y-107720000D02*
X119230000Y-107720000D01*
G75*
G02*
X119080000Y-107570000I0J150000D01*
G01*
X119080000Y-105920000D01*
G75*
G02*
X119230000Y-105770000I150000J0D01*
G01*
X119530000Y-105770000D01*
G75*
G02*
X119680000Y-105920000I0J-150000D01*
G01*
X119680000Y-107570000D01*
G75*
G02*
X119530000Y-107720000I-150000J0D01*
G01*
G37*
G36*
G01*
X120800000Y-107720000D02*
X120500000Y-107720000D01*
G75*
G02*
X120350000Y-107570000I0J150000D01*
G01*
X120350000Y-105920000D01*
G75*
G02*
X120500000Y-105770000I150000J0D01*
G01*
X120800000Y-105770000D01*
G75*
G02*
X120950000Y-105920000I0J-150000D01*
G01*
X120950000Y-107570000D01*
G75*
G02*
X120800000Y-107720000I-150000J0D01*
G01*
G37*
G36*
G01*
X120800000Y-112670000D02*
X120500000Y-112670000D01*
G75*
G02*
X120350000Y-112520000I0J150000D01*
G01*
X120350000Y-110870000D01*
G75*
G02*
X120500000Y-110720000I150000J0D01*
G01*
X120800000Y-110720000D01*
G75*
G02*
X120950000Y-110870000I0J-150000D01*
G01*
X120950000Y-112520000D01*
G75*
G02*
X120800000Y-112670000I-150000J0D01*
G01*
G37*
G36*
G01*
X119530000Y-112670000D02*
X119230000Y-112670000D01*
G75*
G02*
X119080000Y-112520000I0J150000D01*
G01*
X119080000Y-110870000D01*
G75*
G02*
X119230000Y-110720000I150000J0D01*
G01*
X119530000Y-110720000D01*
G75*
G02*
X119680000Y-110870000I0J-150000D01*
G01*
X119680000Y-112520000D01*
G75*
G02*
X119530000Y-112670000I-150000J0D01*
G01*
G37*
G36*
G01*
X118260000Y-112670000D02*
X117960000Y-112670000D01*
G75*
G02*
X117810000Y-112520000I0J150000D01*
G01*
X117810000Y-110870000D01*
G75*
G02*
X117960000Y-110720000I150000J0D01*
G01*
X118260000Y-110720000D01*
G75*
G02*
X118410000Y-110870000I0J-150000D01*
G01*
X118410000Y-112520000D01*
G75*
G02*
X118260000Y-112670000I-150000J0D01*
G01*
G37*
G36*
G01*
X116990000Y-112670000D02*
X116690000Y-112670000D01*
G75*
G02*
X116540000Y-112520000I0J150000D01*
G01*
X116540000Y-110870000D01*
G75*
G02*
X116690000Y-110720000I150000J0D01*
G01*
X116990000Y-110720000D01*
G75*
G02*
X117140000Y-110870000I0J-150000D01*
G01*
X117140000Y-112520000D01*
G75*
G02*
X116990000Y-112670000I-150000J0D01*
G01*
G37*
G36*
G01*
X115720000Y-112670000D02*
X115420000Y-112670000D01*
G75*
G02*
X115270000Y-112520000I0J150000D01*
G01*
X115270000Y-110870000D01*
G75*
G02*
X115420000Y-110720000I150000J0D01*
G01*
X115720000Y-110720000D01*
G75*
G02*
X115870000Y-110870000I0J-150000D01*
G01*
X115870000Y-112520000D01*
G75*
G02*
X115720000Y-112670000I-150000J0D01*
G01*
G37*
G36*
G01*
X114450000Y-112670000D02*
X114150000Y-112670000D01*
G75*
G02*
X114000000Y-112520000I0J150000D01*
G01*
X114000000Y-110870000D01*
G75*
G02*
X114150000Y-110720000I150000J0D01*
G01*
X114450000Y-110720000D01*
G75*
G02*
X114600000Y-110870000I0J-150000D01*
G01*
X114600000Y-112520000D01*
G75*
G02*
X114450000Y-112670000I-150000J0D01*
G01*
G37*
G36*
G01*
X113180000Y-112670000D02*
X112880000Y-112670000D01*
G75*
G02*
X112730000Y-112520000I0J150000D01*
G01*
X112730000Y-110870000D01*
G75*
G02*
X112880000Y-110720000I150000J0D01*
G01*
X113180000Y-110720000D01*
G75*
G02*
X113330000Y-110870000I0J-150000D01*
G01*
X113330000Y-112520000D01*
G75*
G02*
X113180000Y-112670000I-150000J0D01*
G01*
G37*
%TD*%
M02*
